<svg xmlns="http://www.w3.org/2000/svg" width="720" height="720" viewBox="0 0 720 720">
  <title>Archimedes spiral rubbing trajectory on the hole surface</title>
  <rect width="100%" height="100%" fill="#f7f7f4"/>
  <text x="34" y="38" font-family="Arial, sans-serif" font-size="22" fill="#1f2933">Archimedes Spiral Rubbing Trace</text>
  <text x="34" y="62" font-family="Arial, sans-serif" font-size="13" fill="#4b5563">Top view on the contact surface, coordinates relative to the true hole center.</text>

  <line x1="70" y1="363.29" x2="650" y2="363.29" stroke="#d2d6dc" stroke-width="1"/>
  <line x1="550.73" y1="70" x2="550.73" y2="650" stroke="#d2d6dc" stroke-width="1"/>

  <circle cx="341.81" cy="378.19" r="215.68" fill="none" stroke="#9aa6b2" stroke-width="2" stroke-dasharray="8 7"/>
  <circle cx="550.73" cy="363.29" r="43.14" fill="#27ae60" fill-opacity="0.16" stroke="#229954" stroke-width="2"/>
  <circle cx="550.73" cy="363.29" r="5" fill="#229954"/>
  <circle cx="341.81" cy="378.19" r="5" fill="#d97706"/>
  <polyline points="341.81,378.19 342.02,378.18 342.22,378.15 342.43,378.11 342.63,378.06 342.82,377.98 343.01,377.89 343.20,377.79 343.38,377.67 343.55,377.53 343.71,377.39 343.86,377.22 344.00,377.05 344.14,376.86 344.26,376.66 344.36,376.44 344.46,376.22 344.53,375.99 344.60,375.74 344.65,375.49 344.68,375.23 344.70,374.97 344.70,374.70 344.68,374.42 344.65,374.14 344.59,373.85 344.52,373.57 344.43,373.28 344.32,373.00 344.20,372.71 344.05,372.43 343.89,372.15 343.70,371.87 343.50,371.60 343.28,371.34 343.04,371.08 342.78,370.84 342.50,370.60 342.21,370.37 341.90,370.16 341.57,369.95 341.23,369.76 340.87,369.59 340.50,369.43 340.11,369.29 339.71,369.16 339.29,369.05 338.87,368.97 338.43,368.90 337.98,368.85 337.53,368.82 337.06,368.82 336.59,368.84 336.11,368.88 335.63,368.94 335.15,369.03 334.66,369.14 334.17,369.28 333.68,369.44 333.19,369.63 332.70,369.84 332.22,370.08 331.74,370.34 331.26,370.63 330.80,370.95 330.34,371.29 329.89,371.65 329.46,372.04 329.03,372.46 328.62,372.90 328.23,373.36 327.85,373.84 327.49,374.35 327.14,374.88 326.82,375.44 326.52,376.01 326.24,376.60 325.98,377.21 325.75,377.84 325.54,378.49 325.36,379.15 325.21,379.83 325.08,380.52 324.99,381.22 324.92,381.94 324.89,382.66 324.88,383.40 324.91,384.14 324.97,384.88 325.06,385.64 325.19,386.39 325.35,387.15 325.54,387.90 325.77,388.66 326.04,389.41 326.34,390.16 326.67,390.90 327.04,391.64 327.44,392.36 327.88,393.07 328.35,393.78 328.86,394.46 329.39,395.13 329.97,395.79 330.57,396.42 331.21,397.04 331.88,397.63 332.58,398.20 333.31,398.74 334.06,399.26 334.85,399.75 335.66,400.21 336.50,400.64 337.36,401.03 338.25,401.40 339.16,401.72 340.08,402.02 341.03,402.27 342.00,402.49 342.98,402.67 343.97,402.81 344.98,402.91 346.00,402.96 347.03,402.98 348.07,402.95 349.12,402.88 350.16,402.76 351.21,402.60 352.26,402.39 353.31,402.14 354.36,401.84 355.40,401.50 356.43,401.11 357.45,400.68 358.46,400.20 359.46,399.67 360.44,399.11 361.41,398.49 362.35,397.83 363.28,397.13 364.18,396.39 365.05,395.60 365.90,394.78 366.72,393.91 367.50,393.01 368.26,392.06 368.98,391.08 369.66,390.07 370.31,389.02 370.91,387.93 371.48,386.82 372.00,385.68 372.47,384.51 372.91,383.31 373.29,382.09 373.63,380.84 373.91,379.57 374.15,378.29 374.33,376.99 374.46,375.67 374.54,374.35 374.57,373.01 374.53,371.66 374.45,370.31 374.30,368.96 374.10,367.60 373.85,366.25 373.54,364.89 373.16,363.55 372.74,362.21 372.25,360.89 371.71,359.57 371.11,358.28 370.46,357.00 369.75,355.74 368.99,354.51 368.17,353.30 367.29,352.12 366.37,350.97 365.39,349.85 364.37,348.76 363.29,347.72 362.17,346.71 361.00,345.74 359.78,344.82 358.52,343.94 357.22,343.11 355.88,342.33 354.51,341.61 353.09,340.93 351.64,340.31 350.17,339.75 348.66,339.24 347.12,338.79 345.56,338.41 343.98,338.08 342.38,337.82 340.76,337.63 339.12,337.50 337.48,337.43 335.82,337.43 334.16,337.50 332.49,337.64 330.82,337.85 329.15,338.12 327.49,338.47 325.84,338.88 324.19,339.36 322.56,339.92 320.95,340.54 319.35,341.22 317.78,341.98 316.23,342.80 314.71,343.69 313.22,344.65 311.76,345.67 310.34,346.75 308.95,347.89 307.61,349.10 306.31,350.36 305.06,351.68 303.86,353.06 302.71,354.49 301.61,355.98 300.57,357.51 299.59,359.09 298.67,360.72 297.81,362.39 297.02,364.10 296.29,365.84 295.63,367.63 295.04,369.45 294.53,371.29 294.09,373.17 293.72,375.07 293.43,376.99 293.21,378.93 293.07,380.88 293.02,382.85 293.04,384.82 293.14,386.80 293.32,388.79 293.58,390.77 293.93,392.75 294.35,394.72 294.86,396.68 295.45,398.63 296.12,400.55 296.87,402.46 297.70,404.34 298.61,406.20 299.59,408.02 300.66,409.81 301.80,411.57 303.01,413.28 304.30,414.95 305.66,416.57 307.09,418.14 308.58,419.65 310.15,421.12 311.77,422.52 313.46,423.86 315.21,425.14 317.01,426.34 318.87,427.48 320.78,428.55 322.74,429.55 324.74,430.46 326.79,431.30 328.88,432.06 331.01,432.74 333.16,433.33 335.35,433.84 337.57,434.25 339.81,434.59 342.06,434.83 344.34,434.98 346.62,435.04 348.92,435.00 351.22,434.88 353.52,434.66 355.82,434.34 358.11,433.94 360.39,433.43 362.66,432.84 364.91,432.15 367.14,431.37 369.34,430.50 371.51,429.53 373.65,428.48 375.76,427.33 377.82,426.10 379.84,424.78 381.80,423.38 383.72,421.89 385.58,420.33 387.39,418.68 389.13,416.95 390.81,415.15 392.42,413.28 393.95,411.34 395.42,409.33 396.80,407.26 398.10,405.13 399.33,402.94 400.46,400.69 401.51,398.39 402.47,396.05 403.33,393.66 404.10,391.23 404.78,388.76 405.36,386.26 405.83,383.73 406.21,381.18 406.48,378.60 406.65,376.01 406.72,373.40 406.68,370.78 406.54,368.17 406.29,365.55 405.93,362.93 405.47,360.32 404.90,357.73 404.22,355.15 403.44,352.59 402.55,350.06 401.56,347.56 400.47,345.10 399.28,342.67 397.98,340.28 396.59,337.95 395.09,335.66 393.51,333.43 391.83,331.26 390.05,329.15 388.19,327.10 386.24,325.13 384.21,323.23 382.10,321.41 379.91,319.68 377.65,318.02 375.31,316.46 372.90,314.98 370.44,313.60 367.91,312.32 365.32,311.13 362.68,310.05 359.99,309.07 357.26,308.20 354.48,307.43 351.67,306.78 348.83,306.24 345.95,305.81 343.06,305.49 340.15,305.30 337.22,305.22 334.29,305.25 331.35,305.41 328.41,305.68 325.47,306.08 322.55,306.59 319.64,307.22 316.75,307.97 313.88,308.84 311.05,309.82 308.25,310.92 305.48,312.14 302.77,313.47 300.10,314.91 297.48,316.46 294.92,318.12 292.42,319.88 289.99,321.75 287.63,323.73 285.34,325.80 283.14,327.96 281.01,330.22 278.98,332.57 277.03,335.00 275.18,337.52 273.43,340.12 271.78,342.79 270.23,345.54 268.79,348.35 267.46,351.22 266.25,354.15 265.15,357.14 264.17,360.17 263.31,363.26 262.57,366.38 261.95,369.53 261.47,372.72 261.11,375.93 260.87,379.16 260.77,382.41 260.80,385.66 260.96,388.93 261.25,392.19 261.68,395.44 262.23,398.68 262.92,401.91 263.73,405.11 264.68,408.29 265.76,411.43 266.96,414.53 268.29,417.59 269.75,420.61 271.33,423.57 273.03,426.47 274.86,429.30 276.79,432.07 278.85,434.77 281.01,437.38 283.29,439.92 285.67,442.36 288.15,444.72 290.73,446.97 293.41,449.13 296.17,451.19 299.03,453.13 301.96,454.97 304.98,456.68 308.06,458.28 311.22,459.76 314.44,461.12 317.73,462.34 321.06,463.44 324.45,464.40 327.88,465.23 331.34,465.92 334.84,466.48 338.37,466.89 341.92,467.16 345.49,467.29 349.07,467.28 352.65,467.12 356.23,466.82 359.80,466.38 363.36,465.79 366.91,465.05 370.43,464.18 373.91,463.15 377.37,461.99 380.78,460.69 384.14,459.25 387.45,457.67 390.70,455.96 393.89,454.11 397.01,452.13 400.05,450.02 403.01,447.79 405.89,445.44 408.67,442.96 411.37,440.38 413.96,437.68 416.44,434.87 418.82,431.96 421.08,428.95 423.22,425.84 425.24,422.64 427.14,419.36 428.91,416.00 430.54,412.56 432.04,409.05 433.40,405.47 434.62,401.84 435.69,398.15 436.62,394.42 437.39,390.64 438.02,386.83 438.50,382.98 438.82,379.11 438.98,375.23 438.99,371.33 438.84,367.43 438.54,363.52 438.08,359.63 437.46,355.75 436.68,351.89 435.75,348.05 434.67,344.25 433.42,340.48 432.03,336.76 430.49,333.10 428.79,329.48 426.95,325.94 424.96,322.46 422.83,319.06 420.57,315.74 418.16,312.50 415.62,309.36 412.96,306.32 410.17,303.38 407.25,300.55 404.22,297.83 401.08,295.23 397.83,292.76 394.47,290.41 391.02,288.19 387.47,286.11 383.84,284.17 380.12,282.37 376.33,280.73 372.46,279.23 368.53,277.88 364.55,276.69 360.51,275.66 356.42,274.79 352.29,274.09 348.14,273.54 343.95,273.17 339.74,272.96 335.53,272.92 331.30,273.05 327.08,273.35 322.86,273.82 318.66,274.46 314.47,275.27 310.32,276.25 306.20,277.40 302.12,278.71 298.09,280.19 294.12,281.83 290.20,283.64 286.36,285.60 282.59,287.72 278.90,289.99 275.29,292.42 271.78,294.99 268.37,297.70 265.07,300.56 261.88,303.55 258.80,306.67 255.84,309.92 253.02,313.29 250.32,316.78 247.76,320.38 245.35,324.08 243.08,327.89 240.96,331.79 238.99,335.79 237.19,339.86 235.54,344.01 234.06,348.23 232.75,352.52 231.61,356.86 230.64,361.25 229.85,365.69 229.23,370.16 228.79,374.67 228.54,379.19 228.46,383.73 228.57,388.28 228.86,392.82 229.33,397.36 229.99,401.89 230.82,406.39 231.84,410.87 233.04,415.30 234.42,419.70 235.98,424.04 237.71,428.33 239.62,432.55 241.70,436.69 243.94,440.76 246.35,444.74 248.93,448.63 251.66,452.42 254.55,456.10 257.58,459.67 260.77,463.12 264.09,466.45 267.56,469.65 271.15,472.71 274.87,475.63 278.71,478.40 282.67,481.03 286.73,483.49 290.90,485.80 295.16,487.94 299.51,489.91 303.95,491.70 308.46,493.32 313.04,494.77 317.69,496.03 322.39,497.10 327.13,497.99 331.92,498.68 336.73,499.19 341.58,499.50 346.44,499.62 351.30,499.54 356.17,499.27 361.04,498.80 365.88,498.14 370.71,497.28 375.51,496.23 380.26,494.98 384.98,493.54 389.63,491.91 394.23,490.10 398.76,488.09 403.21,485.91 407.58,483.54 411.85,481.00 416.03,478.28 420.11,475.39 424.07,472.34 427.91,469.12 431.62,465.75 435.20,462.23 438.65,458.56 441.95,454.75 445.10,450.80 448.09,446.72 450.93,442.52 453.59,438.20 456.09,433.78 458.41,429.24 460.55,424.62 462.50,419.90 464.27,415.10 465.85,410.22 467.23,405.28 468.42,400.28 469.41,395.22 470.19,390.13 470.77,385.00 471.15,379.84 471.31,374.66 471.28,369.47 471.03,364.27 470.57,359.09 469.91,353.92 469.03,348.77 467.96,343.65 466.67,338.57 465.18,333.54 463.49,328.56 461.59,323.65 459.50,318.81 457.21,314.05 454.73,309.38 452.06,304.81 449.20,300.34 446.17,295.98 442.95,291.74 439.56,287.62 436.01,283.64 432.29,279.80 428.42,276.10 424.39,272.56 420.22,269.17 415.92,265.95 411.47,262.90 406.91,260.03 402.22,257.33 397.43,254.83 392.53,252.51 387.53,250.39 382.44,248.47 377.28,246.75 372.04,245.23 366.73,243.93 361.37,242.84 355.97,241.96 350.52,241.29 345.05,240.85 339.55,240.62 334.04,240.62 328.52,240.83 323.01,241.27 317.52,241.93 312.04,242.81 306.60,243.91 301.20,245.23 295.85,246.76 290.55,248.52 285.32,250.48 280.17,252.66 275.10,255.04 270.13,257.63 265.25,260.42 260.48,263.41 255.83,266.59 251.31,269.96 246.91,273.51 242.66,277.24 238.55,281.15 234.60,285.22 230.80,289.45 227.18,293.84 223.73,298.38 220.45,303.06 217.37,307.87 214.47,312.81 211.77,317.87 209.27,323.03 206.98,328.31 204.90,333.68 203.03,339.13 201.38,344.66 199.95,350.27 198.74,355.93 197.76,361.65 197.01,367.40 196.49,373.20 196.20,379.01 196.14,384.84 196.32,390.68 196.73,396.52 197.38,402.34 198.26,408.14 199.37,413.90 200.71,419.63 202.29,425.30 204.09,430.92 206.12,436.46 208.38,441.93 210.85,447.31 213.54,452.60 216.44,457.78 219.56,462.85 222.88,467.79 226.40,472.61 230.11,477.28 234.01,481.81 238.10,486.19 242.37,490.41 246.80,494.45 251.40,498.32 256.16,502.01 261.07,505.51 266.13,508.82 271.32,511.92 276.63,514.82 282.07,517.51 287.61,519.98 293.26,522.22 299.00,524.25 304.82,526.04 310.72,527.61 316.69,528.93 322.71,530.02 328.78,530.87 334.89,531.47 341.02,531.83 347.18,531.95 353.34,531.82 359.49,531.44 365.64,530.81 371.76,529.94 377.86,528.82 383.91,527.46 389.91,525.85 395.84,524.00 401.71,521.91 407.50,519.59 413.19,517.03 418.79,514.25 424.28,511.23 429.65,508.00 434.89,504.55 440.00,500.89 444.96,497.02 449.77,492.95 454.42,488.68 458.90,484.23 463.21,479.60 467.33,474.79 471.26,469.81 474.99,464.67 478.52,459.38 481.84,453.95 484.94,448.38 487.82,442.68 490.48,436.87 492.90,430.94 495.09,424.92 497.03,418.80 498.73,412.61 500.19,406.34 501.39,400.01 502.34,393.63 503.03,387.21 503.47,380.76 503.65,374.29 503.57,367.81 503.23,361.33 502.63,354.86 501.77,348.41 500.66,341.99 499.28,335.61 497.65,329.29 495.76,323.02 493.62,316.83 491.24,310.73 488.60,304.71 485.73,298.80 482.61,293.01 479.27,287.33 475.69,281.78 471.89,276.38 467.87,271.13 463.64,266.03 459.21,261.11 454.57,256.35 449.74,251.78 444.73,247.41 439.54,243.23 434.17,239.26 428.65,235.50 422.98,231.96 417.16,228.65 411.20,225.57 405.12,222.72 398.92,220.12 392.62,217.77 386.22,215.67 379.73,213.82 373.16,212.23 366.53,210.91 359.85,209.85 353.11,209.06 346.35,208.54 339.56,208.28 332.75,208.30 325.95,208.60 319.15,209.16 312.37,210.00 305.63,211.11 298.92,212.49 292.27,214.14 285.69,216.06 279.17,218.24 272.74,220.69 266.41,223.39 260.18,226.35 254.07,229.56 248.09,233.01 242.24,236.71 236.53,240.64 230.99,244.80 225.60,249.19 220.39,253.79 215.37,258.60 210.53,263.62 205.89,268.83 201.46,274.23 197.25,279.81 193.25,285.56 189.49,291.48 185.96,297.54 182.68,303.75 179.64,310.09 176.85,316.56 174.32,323.14 172.06,329.83 170.06,336.61 168.33,343.47 166.88,350.40 165.70,357.40 164.81,364.44 164.19,371.52 163.86,378.63 163.82,385.75 164.06,392.88 164.58,400.00 165.39,407.11 166.49,414.18 167.87,421.21 169.53,428.19 171.47,435.11 173.69,441.95 176.19,448.70 178.95,455.35 181.99,461.90 185.28,468.33 188.84,474.62 192.65,480.78 196.70,486.79 201.00,492.63 205.54,498.31 210.30,503.80 215.29,509.11 220.49,514.22 225.89,519.12 231.50,523.81 237.29,528.27 243.27,532.51 249.41,536.50 255.72,540.25 262.18,543.75 268.78,546.99 275.52,549.97 282.37,552.68 289.34,555.11 296.41,557.27 303.56,559.14 310.79,560.73 318.09,562.03 325.44,563.04 332.84,563.75 340.27,564.17 347.71,564.28 355.16,564.10 362.61,563.63 370.04,562.85 377.44,561.78 384.80,560.41 392.11,558.74 399.35,556.78 406.52,554.53 413.60,551.99 420.58,549.17 427.44,546.06 434.19,542.69 440.80,539.04 447.27,535.12 453.58,530.94 459.73,526.51 465.70,521.83 471.49,516.92 477.08,511.76 482.46,506.39 487.64,500.79 492.58,494.99 497.30,488.99 501.78,482.79 506.01,476.42 509.99,469.87 513.71,463.16 517.16,456.30 520.33,449.31 523.23,442.18 525.84,434.93 528.16,427.58 530.18,420.14 531.91,412.61 533.34,405.01 534.47,397.34" fill="none" stroke="#2563eb" stroke-width="3" stroke-linecap="round" stroke-linejoin="round"/>
  <polyline points="344.26,376.93 342.41,378.02 342.41,378.02 342.41,378.02 342.41,378.02 342.41,378.02 342.41,378.02 342.41,378.02 342.41,378.02 343.34,377.57 343.34,377.57 343.34,377.57 343.34,377.57 343.34,377.57 344.13,376.84 344.13,376.84 344.13,376.84 344.13,376.84 344.60,376.02 344.60,376.02 344.60,376.02 344.60,376.02 344.80,375.08 344.80,375.08 344.80,375.08 344.75,374.23 344.75,374.23 344.75,374.23 344.54,373.40 344.54,373.40 344.25,372.76 344.25,372.76 344.25,372.76 343.77,372.01 343.77,372.01 343.29,371.43 343.29,371.43 342.76,370.91 342.76,370.91 342.16,370.46 342.16,370.46 341.50,370.05 341.50,370.05 340.78,369.71 340.78,369.71 340.00,369.42 340.00,369.42 339.16,369.20 339.16,369.20 338.28,369.06 338.28,369.06 337.36,369.00 337.36,369.00 336.41,369.03 336.41,369.03 335.43,369.15 335.43,369.15 334.44,369.36 334.44,369.36 333.44,369.66 333.44,369.66 332.45,370.07 332.45,370.07 331.48,370.58 331.48,370.58 330.53,371.18 330.53,371.18 329.62,371.89 329.62,371.89 328.75,372.69 328.75,372.69 327.94,373.59 327.94,373.59 327.20,374.58 327.20,374.58 326.54,375.65 326.54,375.65 325.96,376.80 325.96,376.80 325.48,378.03 325.29,378.83 325.29,378.83 324.97,380.04 324.87,380.87 324.87,380.87 324.72,382.13 324.73,383.01 324.76,383.79 324.82,384.54 324.91,385.29 325.02,386.04 325.17,386.79 325.36,387.54 325.58,388.29 325.83,389.04 326.12,389.78 326.44,390.52 326.80,391.25 327.19,391.97 327.62,392.69 328.09,393.39 328.58,394.07 329.11,394.75 329.68,395.40 330.28,396.04 330.91,396.66 331.57,397.25 332.26,397.83 332.99,398.37 333.74,398.90 334.52,399.39 335.33,399.86 336.17,400.30 337.03,400.71 337.91,401.08 338.82,401.42 339.75,401.72 340.69,401.99 341.66,402.22 342.64,402.42 343.64,402.57 344.65,402.68 345.68,402.76 346.71,402.79 347.75,402.78 348.80,402.72 349.85,402.62 350.91,402.48 351.97,402.29 353.03,402.06 354.08,401.79 355.13,401.46 356.17,401.10 357.20,400.68 358.23,400.23 359.23,399.72 360.23,399.18 361.21,398.59 362.16,397.95 363.10,397.27 364.02,396.55 364.91,395.79 365.77,394.99 366.60,394.14 367.41,393.26 368.18,392.34 368.91,391.38 369.61,390.39 370.28,389.36 370.90,388.30 371.48,387.20 372.02,386.08 372.52,384.93 372.97,383.75 373.37,382.55 373.73,381.32 374.03,380.07 374.29,378.81 374.49,377.52 374.64,376.22 374.74,374.91 374.78,373.58 374.76,372.25 374.70,370.91 374.57,369.57 374.39,368.22 374.15,366.88 373.86,365.53 373.50,364.20 373.09,362.87 372.62,361.55 372.10,360.24 371.51,358.95 370.87,357.67 370.18,356.41 369.43,355.18 368.62,353.97 367.76,352.78 366.85,351.63 365.88,350.51 364.87,349.42 363.80,348.36 362.69,347.35 361.52,346.37 360.31,345.44 359.06,344.55 357.77,343.71 356.43,342.91 355.06,342.17 353.65,341.48 352.20,340.84 350.73,340.25 349.22,339.73 347.68,339.26 346.12,338.85 344.53,338.51 342.93,338.22 341.30,338.00 339.66,337.85 338.01,337.76 336.34,337.73 334.67,337.77 332.99,337.88 331.31,338.06 329.64,338.30 327.96,338.62 326.29,339.00 324.63,339.45 322.99,339.97 321.36,340.56 319.74,341.21 318.15,341.94 316.58,342.73 315.04,343.58 313.53,344.50 312.05,345.49 310.60,346.54 309.20,347.65 307.83,348.82 306.51,350.05 305.23,351.34 304.01,352.68 302.83,354.08 301.71,355.53 300.64,357.03 299.63,358.58 298.69,360.18 297.80,361.82 296.98,363.50 296.23,365.22 295.54,366.97 294.92,368.76 294.38,370.59 293.91,372.44 293.51,374.31 293.19,376.21 292.95,378.12 292.79,380.06 292.70,382.00 292.70,383.96 292.77,385.93 292.93,387.89 293.17,389.86 293.49,391.83 293.89,393.79 294.37,395.74 294.94,397.67 295.58,399.59 296.31,401.50 297.12,403.37 298.01,405.23 298.98,407.05 300.02,408.84 301.14,410.60 302.34,412.31 303.61,413.99 304.96,415.61 306.37,417.19 307.86,418.72 309.41,420.20 311.03,421.61 312.71,422.97 314.45,424.26 316.24,425.49 318.10,426.65 320.00,427.74 321.96,428.76 323.96,429.70 326.01,430.57 328.10,431.36 330.23,432.06 332.39,432.68 334.58,433.22 336.81,433.68 339.05,434.04 341.32,434.32 343.60,434.51 345.90,434.60 348.21,434.61 350.52,434.52 352.84,434.34 355.15,434.07 357.46,433.71 359.77,433.25 362.05,432.70 364.32,432.05 366.57,431.32 368.80,430.49 371.00,429.57 373.16,428.56 375.29,427.46 377.38,426.27 379.42,425.00 381.42,423.64 383.37,422.20 385.26,420.68 387.10,419.08 388.87,417.40 390.58,415.64 392.22,413.81 393.79,411.92 395.29,409.95 396.71,407.92 398.05,405.83 399.30,403.67 400.48,401.47 401.56,399.21 402.55,396.90 403.45,394.54 404.26,392.15 404.97,389.71 405.58,387.24 406.10,384.74 406.51,382.22 406.91,378.90 406.97,376.88 407.09,374.45 407.11,371.14 406.94,369.09 406.70,365.92 406.37,363.88 405.88,360.72 405.39,358.70 404.63,355.58 403.98,353.58 402.96,350.52 402.15,348.56 400.87,345.58 399.90,343.67 398.37,340.79 397.24,338.94 395.47,336.18 394.20,334.42 392.18,331.80 390.77,330.12 388.53,327.66 386.99,326.08 384.53,323.80 382.87,322.34 380.21,320.25 378.43,318.91 375.58,317.03 373.69,315.83 370.68,314.17 368.70,313.12 365.53,311.70 363.47,310.79 360.17,309.63 358.05,308.88 354.63,307.98 352.45,307.40 348.94,306.77 346.72,306.36 343.14,306.00 340.89,305.78 337.27,305.70 335.00,305.66 331.35,305.87 329.09,306.01 325.44,306.51 323.20,306.83 320.41,307.44 316.66,308.37 314.47,308.96 311.74,309.89 308.10,311.26 306.00,312.12 303.37,313.37 299.89,315.18 297.91,316.31 295.43,317.87 292.16,320.09 290.32,321.47 288.03,323.32 285.03,325.92 283.37,327.54 281.30,329.65 278.61,332.61 277.16,334.45 274.79,337.51 273.49,339.48 271.36,342.73 270.22,344.82 268.35,348.23 267.38,350.42 265.78,353.98 264.99,356.27 263.68,359.95 263.08,362.32 262.07,366.10 261.65,368.53 260.95,372.39 260.74,374.87 260.35,378.79 260.33,382.06 260.36,385.31 260.52,388.55 260.81,391.79 261.23,395.03 261.79,398.25 262.48,401.46 263.29,404.65 264.24,407.81 265.32,410.94 266.53,414.03 267.87,417.08 269.33,420.08 270.92,423.03 272.63,425.92 274.46,428.75 276.41,431.51 278.47,434.19 280.65,436.80 282.93,439.33 285.32,441.77 287.82,444.12 290.41,446.38 293.10,448.54 295.88,450.59 298.75,452.54 301.70,454.37 304.73,456.09 307.83,457.70 311.01,459.18 314.25,460.54 317.54,461.77 320.90,462.88 324.30,463.85 327.75,464.69 331.23,465.39 334.75,465.95 338.30,466.38 341.87,466.67 345.45,466.81 349.05,466.81 352.65,466.67 355.42,466.45 359.86,465.87 362.59,465.49 367.01,464.58 369.71,463.99 374.06,462.73 376.70,461.91 380.97,460.32 383.54,459.28 387.69,457.35 390.16,456.10 394.17,453.84 396.53,452.38 400.37,449.81 402.61,448.15 406.25,445.29 408.35,443.43 411.76,440.28 413.71,438.25 416.87,434.84 418.65,432.63 421.54,428.97 423.13,426.62 425.74,422.73 427.55,419.48 429.33,416.13 430.98,412.72 432.48,409.23 433.85,405.68 435.08,402.07 436.16,398.41 437.09,394.70 437.87,390.94 438.51,387.15 438.98,383.33 439.31,379.49 439.48,375.62 439.49,371.74 439.34,367.86 439.04,363.98 438.58,360.10 437.96,356.24 437.18,352.39 436.25,348.58 435.16,344.79 433.91,341.04 432.52,337.34 430.97,333.68 429.27,330.08 427.42,326.55 425.42,323.08 423.29,319.69 421.01,316.38 418.60,313.16 416.05,310.02 413.37,306.99 410.57,304.05 407.64,301.23 404.60,298.51 401.44,295.92 398.18,293.44 394.81,291.09 391.34,288.88 387.78,286.80 384.12,284.85 380.39,283.05 376.58,281.40 372.70,279.89 368.75,278.54 364.74,277.34 360.68,276.31 356.58,275.43 352.43,274.71 348.25,274.15 344.05,273.77 339.82,273.55 335.58,273.49 331.33,273.61 327.09,273.89 322.85,274.34 318.62,274.96 314.42,275.75 310.24,276.71 306.10,277.84 302.00,279.13 297.94,280.58 293.95,282.20 290.01,283.98 286.14,285.92 282.35,288.01 278.64,290.26 275.01,292.65 271.48,295.20 268.05,297.88 264.73,300.71 261.51,303.67 258.42,306.76 255.44,309.98 252.60,313.32 249.88,316.78 247.31,320.35 244.88,324.02 242.59,327.80 240.46,331.67 238.48,335.63 236.66,339.67 235.00,343.79 233.51,347.98 232.18,352.24 231.03,356.55 230.05,360.91 229.25,365.32 228.63,369.77 228.19,374.24 227.92,378.74 227.85,383.25 227.95,387.77 228.24,392.29 228.71,396.80 229.37,401.30 230.20,405.79 231.23,410.24 232.43,414.65 233.81,419.03 235.38,423.35 237.12,427.62 239.03,431.82 241.12,435.95 243.37,440.01 245.80,443.97 248.38,447.85 251.13,451.63 254.03,455.30 257.08,458.87 260.28,462.31 263.62,465.63 267.10,468.83 270.71,471.89 274.45,474.81 278.31,477.58 282.29,480.20 286.38,482.67 290.57,484.98 294.85,487.13 299.23,489.11 303.69,490.91 308.22,492.54 312.83,494.00 317.50,495.27 322.22,496.36 326.99,497.26 331.80,497.97 336.65,498.50 341.52,498.83 346.40,498.97 351.30,498.91 356.19,498.66 361.08,498.22 365.95,497.58 370.81,496.75 375.63,495.72 380.41,494.50 385.15,493.09 389.83,491.49 394.45,489.70 399.01,487.73 403.48,485.57 407.87,483.24 412.17,480.73 416.37,478.04 420.46,475.19 424.45,472.16 428.31,468.98 432.04,465.64 435.64,462.15 439.11,458.52 442.43,454.74 445.59,450.83 448.60,446.78 451.45,442.62 454.13,438.33 456.64,433.94 458.98,429.44 461.13,424.84 463.10,420.16 464.88,415.39 466.46,410.55 467.86,405.63 469.05,400.66 470.04,395.64 470.83,390.57 471.42,385.47 471.80,380.34 471.97,375.19 471.93,370.02 471.69,364.86 471.23,359.70 470.57,354.55 469.69,349.42 468.61,344.33 467.32,339.27 465.83,334.26 464.13,329.30 462.23,324.41 460.13,319.59 457.83,314.85 455.34,310.19 452.66,305.63 449.79,301.17 446.74,296.82 443.52,292.59 440.12,288.49 436.55,284.51 432.82,280.68 428.93,276.99 424.88,273.45 420.70,270.07 416.37,266.85 411.91,263.80 407.32,260.92 402.62,258.23 397.80,255.72 392.88,253.40 387.86,251.27 382.75,249.34 377.56,247.61 372.29,246.08 366.97,244.77 361.58,243.66 356.15,242.77 350.67,242.09 345.17,241.63 339.64,241.38 334.11,241.36 328.56,241.55 323.02,241.97 317.50,242.60 312.00,243.46 306.53,244.53 301.09,245.82 295.71,247.33 290.39,249.06 285.13,250.99 279.95,253.13 274.85,255.49 269.85,258.04 264.94,260.80 260.15,263.75 255.47,266.90 250.91,270.23 246.49,273.75 242.21,277.44 238.08,281.31 234.10,285.34 230.28,289.53 226.63,293.88 223.16,298.38 219.86,303.02 216.75,307.79 213.84,312.68 211.12,317.70 208.60,322.83 206.29,328.06 204.19,333.39 202.31,338.81 200.64,344.30 199.20,349.86 197.98,355.49 196.99,361.16 196.23,366.89 195.70,372.64 195.40,378.42 195.34,384.22 195.52,390.02 195.93,395.82 196.57,401.61 197.45,407.38 198.57,413.12 199.92,418.81 201.50,424.46 203.31,430.05 205.34,435.57 207.61,441.02 210.09,446.38 212.79,451.64 215.71,456.81 218.84,461.86 222.18,466.79 225.71,471.59 229.45,476.25 233.37,480.78 237.48,485.14 241.77,489.35 246.23,493.40 250.85,497.27 255.64,500.95 260.57,504.46 265.65,507.77 270.87,510.88 276.22,513.78 281.68,516.48 287.26,518.96 292.93,521.22 298.71,523.26 304.56,525.07 310.49,526.65 316.49,528.00 322.55,529.11 328.65,529.98 334.79,530.60 340.96,530.99 347.14,531.13 353.34,531.03 359.53,530.68 365.71,530.08 371.86,529.24 377.99,528.16 384.07,526.83 390.10,525.25 396.07,523.44 401.97,521.39 407.79,519.11 413.51,516.59 419.14,513.84 424.66,510.87 430.05,507.67 435.32,504.26 440.46,500.64 445.45,496.81 450.28,492.79 454.96,488.56 459.46,484.15 463.79,479.56 467.93,474.79 471.88,469.85 475.64,464.76 479.18,459.51 482.52,454.12 485.64,448.59 488.54,442.93 491.21,437.16 493.64,431.28 495.84,425.29 497.80,419.21 499.51,413.06 500.97,406.83 502.18,400.54 503.14,394.19 503.84,387.81 504.28,381.39 504.46,374.95 504.39,368.50 504.05,362.05 503.45,355.61 502.59,349.19 501.47,342.80 500.09,336.45 498.45,330.16 496.56,323.92 494.41,317.75 492.02,311.67 489.38,305.68 486.49,299.78 483.37,294.01 480.01,288.35 476.42,282.82 472.60,277.43 468.57,272.19 464.32,267.10 459.87,262.19 455.21,257.44 450.37,252.88 445.33,248.51 440.12,244.33 434.73,240.36 429.19,236.61 423.49,233.07 417.64,229.75 411.66,226.67 405.55,223.82 399.33,221.21 393.00,218.84 386.57,216.73 380.05,214.87 373.45,213.27 366.79,211.93 360.07,210.85 353.30,210.04 346.50,209.50 339.68,209.22 332.84,209.22 326.00,209.49 319.17,210.03 312.36,210.84 305.58,211.92 298.84,213.26 292.15,214.88 285.53,216.77 278.98,218.91 272.51,221.32 266.14,223.98 259.88,226.90 253.73,230.07 247.71,233.48 241.83,237.13 236.09,241.02 230.51,245.14 225.09,249.48 219.85,254.03 214.79,258.80 209.92,263.77 205.25,268.93 200.79,274.28 196.55,279.81 192.53,285.52 188.74,291.38 185.18,297.39 181.87,303.55 178.81,309.85 176.00,316.26 173.45,322.80 171.16,329.43 169.15,336.16 167.41,342.97 165.94,349.86 164.75,356.80 163.84,363.80 163.22,370.84 162.88,377.90 162.83,384.98 163.06,392.07 163.59,399.15 164.40,406.21 165.49,413.25 166.88,420.24 168.54,427.19 170.49,434.07 172.72,440.88 175.23,447.60 178.01,454.23 181.05,460.75 184.37,467.15 187.94,473.43 191.77,479.56 195.85,485.55 200.17,491.38 204.73,497.05 209.51,502.53 214.53,507.83 219.76,512.93 225.19,517.83 230.83,522.52 236.65,526.98 242.66,531.22 248.84,535.22 255.18,538.98 261.68,542.49 268.32,545.74 275.09,548.73 281.98,551.46 288.99,553.91 296.10,556.09 303.29,557.98 310.56,559.60 317.90,560.92 325.29,561.96 332.73,562.70 340.20,563.15 347.68,563.30 355.17,563.16 362.66,562.72 370.13,561.98 377.57,560.94 384.97,559.61 392.32,557.99 399.60,556.07 406.80,553.86 413.92,551.37 420.94,548.59 427.84,545.54 434.62,542.21 441.27,538.60 447.77,534.74 454.11,530.61 460.29,526.23 466.29,521.60 472.11,516.73 477.73,511.63 483.14,506.30 488.34,500.76 493.31,495.01 498.05,489.05 502.56,482.91 506.81,476.58 510.81,470.09 514.54,463.43 518.01,456.62 521.20,449.67 524.11,442.59 526.74,435.39 529.07,428.08 531.11,420.68 532.85,413.20 534.29,405.64 535.42,398.02" fill="none" stroke="#dc2626" stroke-width="2" stroke-linecap="round" stroke-linejoin="round" stroke-opacity="0.72"/>
  <circle cx="341.81" cy="378.19" r="4" fill="#111827"/>
  <circle cx="534.47" cy="397.34" r="5" fill="#7c3aed"/>

  <g font-family="Arial, sans-serif" font-size="13" fill="#1f2933">
    <rect x="34" y="588" width="330" height="96" rx="6" fill="#ffffff" stroke="#d2d6dc"/>
    <circle cx="54" cy="613" r="5" fill="#229954"/><text x="70" y="618">True hole center and alignment tolerance</text>
    <circle cx="54" cy="638" r="5" fill="#d97706"/><text x="70" y="643">Random coarse vision estimate</text>
    <line x1="49" y1="664" x2="64" y2="664" stroke="#2563eb" stroke-width="3"/><text x="70" y="669">Commanded Archimedes spiral</text>
  </g>
  <text x="460" y="682" font-family="Consolas, monospace" font-size="12" fill="#4b5563">offset=(-0.0194, -0.0014) m</text>
</svg>
