<svg xmlns="http://www.w3.org/2000/svg" width="720" height="720" viewBox="0 0 720 720">
  <title>Archimedes spiral rubbing trajectory on the hole surface</title>
  <rect width="100%" height="100%" fill="#f7f7f4"/>
  <text x="34" y="38" font-family="Arial, sans-serif" font-size="22" fill="#1f2933">Archimedes Spiral Rubbing Trace</text>
  <text x="34" y="62" font-family="Arial, sans-serif" font-size="13" fill="#4b5563">Top view on the contact surface, coordinates relative to the true hole center.</text>

  <line x1="70" y1="436.07" x2="650" y2="436.07" stroke="#d2d6dc" stroke-width="1"/>
  <line x1="383.92" y1="70" x2="383.92" y2="650" stroke="#d2d6dc" stroke-width="1"/>

  <circle cx="360.00" cy="360.00" r="233.87" fill="none" stroke="#9aa6b2" stroke-width="2" stroke-dasharray="8 7"/>
  <circle cx="383.92" cy="436.07" r="31.18" fill="#27ae60" fill-opacity="0.16" stroke="#229954" stroke-width="2"/>
  <circle cx="383.92" cy="436.07" r="5" fill="#229954"/>
  <circle cx="360.00" cy="360.00" r="5" fill="#d97706"/>
  <polyline points="360.00,360.00 360.15,359.99 360.30,359.98 360.44,359.95 360.59,359.91 360.73,359.85 360.87,359.79 361.00,359.71 361.13,359.63 361.25,359.53 361.37,359.42 361.48,359.30 361.58,359.17 361.68,359.04 361.77,358.89 361.84,358.74 361.91,358.58 361.97,358.41 362.01,358.23 362.05,358.05 362.07,357.86 362.09,357.67 362.09,357.48 362.07,357.28 362.05,357.07 362.01,356.87 361.96,356.66 361.89,356.45 361.82,356.25 361.72,356.04 361.62,355.84 361.50,355.63 361.37,355.44 361.22,355.24 361.06,355.05 360.89,354.86 360.70,354.69 360.50,354.51 360.29,354.35 360.06,354.19 359.83,354.05 359.58,353.91 359.32,353.78 359.05,353.67 358.77,353.57 358.48,353.48 358.18,353.40 357.87,353.33 357.55,353.28 357.23,353.25 356.90,353.23 356.57,353.23 356.23,353.24 355.88,353.27 355.53,353.32 355.18,353.38 354.83,353.46 354.47,353.56 354.12,353.68 353.76,353.81 353.41,353.97 353.06,354.14 352.72,354.33 352.37,354.54 352.04,354.77 351.71,355.01 351.38,355.28 351.07,355.56 350.76,355.86 350.47,356.17 350.18,356.51 349.91,356.86 349.64,357.23 349.40,357.61 349.16,358.01 348.95,358.42 348.74,358.85 348.56,359.29 348.39,359.75 348.24,360.22 348.11,360.70 348.00,361.18 347.91,361.68 347.84,362.19 347.79,362.71 347.76,363.23 347.76,363.76 347.78,364.30 347.82,364.84 347.89,365.38 347.98,365.93 348.10,366.48 348.24,367.02 348.41,367.57 348.60,368.11 348.81,368.65 349.05,369.19 349.32,369.72 349.61,370.24 349.93,370.76 350.27,371.27 350.63,371.76 351.02,372.25 351.44,372.72 351.88,373.18 352.34,373.63 352.82,374.05 353.32,374.46 353.85,374.86 354.40,375.23 354.97,375.58 355.55,375.92 356.16,376.23 356.78,376.51 357.42,376.78 358.08,377.01 358.75,377.23 359.44,377.41 360.13,377.57 360.84,377.70 361.56,377.80 362.29,377.87 363.03,377.91 363.77,377.92 364.52,377.90 365.28,377.85 366.04,377.76 366.80,377.65 367.55,377.50 368.31,377.31 369.07,377.10 369.82,376.85 370.57,376.57 371.31,376.26 372.04,375.91 372.76,375.53 373.47,375.12 374.16,374.68 374.85,374.20 375.52,373.70 376.17,373.16 376.80,372.59 377.41,371.99 378.00,371.37 378.57,370.71 379.12,370.03 379.64,369.32 380.13,368.59 380.60,367.83 381.04,367.05 381.44,366.24 381.82,365.41 382.17,364.57 382.48,363.70 382.75,362.82 383.00,361.92 383.20,361.00 383.38,360.07 383.51,359.13 383.60,358.18 383.66,357.22 383.68,356.26 383.65,355.28 383.59,354.31 383.49,353.33 383.34,352.35 383.16,351.37 382.93,350.39 382.66,349.42 382.36,348.45 382.01,347.49 381.61,346.54 381.18,345.61 380.71,344.68 380.20,343.77 379.64,342.88 379.05,342.01 378.42,341.15 377.75,340.32 377.05,339.51 376.30,338.73 375.53,337.97 374.71,337.25 373.87,336.55 372.99,335.88 372.08,335.25 371.14,334.65 370.17,334.08 369.18,333.56 368.15,333.07 367.11,332.62 366.04,332.21 364.95,331.85 363.84,331.52 362.71,331.24 361.57,331.01 360.41,330.82 359.24,330.68 358.06,330.58 356.86,330.54 355.67,330.54 354.47,330.59 353.26,330.69 352.05,330.84 350.85,331.04 349.65,331.29 348.45,331.59 347.26,331.94 346.08,332.33 344.92,332.78 343.76,333.28 342.63,333.83 341.51,334.42 340.41,335.06 339.33,335.75 338.27,336.49 337.25,337.27 336.25,338.10 335.28,338.97 334.34,339.89 333.43,340.84 332.56,341.84 331.73,342.87 330.94,343.94 330.19,345.05 329.48,346.19 328.81,347.37 328.19,348.58 327.62,349.81 327.09,351.08 326.62,352.37 326.19,353.68 325.82,355.02 325.50,356.37 325.23,357.74 325.02,359.13 324.87,360.53 324.77,361.95 324.73,363.37 324.74,364.80 324.81,366.23 324.95,367.66 325.14,369.10 325.39,370.53 325.69,371.95 326.06,373.37 326.49,374.77 326.97,376.17 327.51,377.55 328.11,378.91 328.77,380.25 329.48,381.57 330.25,382.86 331.07,384.13 331.95,385.37 332.88,386.57 333.86,387.74 334.90,388.88 335.98,389.98 337.11,391.03 338.28,392.05 339.50,393.01 340.77,393.94 342.07,394.81 343.42,395.64 344.80,396.41 346.21,397.13 347.66,397.79 349.14,398.40 350.65,398.94 352.19,399.43 353.75,399.86 355.33,400.23 356.93,400.53 358.55,400.77 360.18,400.94 361.82,401.05 363.48,401.09 365.14,401.07 366.80,400.98 368.46,400.82 370.12,400.59 371.78,400.30 373.43,399.94 375.07,399.51 376.70,399.01 378.31,398.45 379.90,397.81 381.47,397.12 383.02,396.35 384.54,395.53 386.03,394.64 387.49,393.68 388.91,392.67 390.30,391.59 391.64,390.46 392.95,389.27 394.21,388.02 395.42,386.72 396.58,385.37 397.69,383.97 398.75,382.51 399.75,381.02 400.69,379.47 401.58,377.89 402.40,376.27 403.15,374.61 403.85,372.91 404.47,371.18 405.03,369.43 405.52,367.64 405.93,365.84 406.28,364.01 406.55,362.16 406.75,360.30 406.87,358.42 406.92,356.54 406.89,354.65 406.79,352.75 406.61,350.86 406.35,348.97 406.01,347.09 405.60,345.21 405.11,343.35 404.55,341.50 403.91,339.67 403.19,337.86 402.40,336.08 401.54,334.32 400.60,332.60 399.60,330.91 398.52,329.26 397.37,327.64 396.15,326.07 394.87,324.55 393.53,323.07 392.12,321.65 390.65,320.28 389.12,318.96 387.54,317.70 385.90,316.51 384.21,315.38 382.48,314.31 380.69,313.31 378.86,312.38 376.99,311.53 375.08,310.74 373.14,310.04 371.16,309.40 369.16,308.85 367.13,308.38 365.07,307.99 362.99,307.68 360.90,307.45 358.80,307.31 356.68,307.25 354.56,307.28 352.43,307.39 350.31,307.59 348.19,307.87 346.07,308.24 343.97,308.70 341.88,309.24 339.81,309.87 337.76,310.58 335.74,311.37 333.74,312.25 331.77,313.21 329.84,314.26 327.95,315.38 326.10,316.58 324.30,317.85 322.54,319.21 320.83,320.63 319.18,322.13 317.58,323.69 316.05,325.33 314.58,327.02 313.17,328.78 311.83,330.60 310.57,332.48 309.37,334.41 308.25,336.40 307.21,338.43 306.25,340.51 305.38,342.62 304.58,344.78 303.87,346.98 303.25,349.21 302.72,351.46 302.27,353.74 301.92,356.05 301.66,358.37 301.49,360.70 301.42,363.05 301.44,365.41 301.55,367.76 301.76,370.12 302.07,372.47 302.47,374.81 302.97,377.15 303.56,379.46 304.24,381.76 305.02,384.03 305.89,386.27 306.85,388.49 307.91,390.66 309.05,392.80 310.28,394.90 311.60,396.95 313.00,398.95 314.48,400.90 316.05,402.79 317.69,404.62 319.41,406.39 321.21,408.09 323.07,409.73 325.01,411.29 327.01,412.77 329.07,414.18 331.19,415.50 333.37,416.74 335.60,417.90 337.89,418.97 340.22,419.95 342.59,420.83 345.00,421.63 347.45,422.32 349.93,422.92 352.43,423.42 354.96,423.82 357.51,424.12" fill="none" stroke="#2563eb" stroke-width="3" stroke-linecap="round" stroke-linejoin="round"/>
  <polyline points="361.35,359.66 360.39,360.01 360.39,360.01 360.39,360.01 360.39,360.01 360.39,360.01 360.39,360.01 360.39,360.01 361.00,359.67 361.00,359.67 361.00,359.67 361.00,359.67 361.00,359.67 361.58,359.16 361.58,359.16 361.58,359.16 361.58,359.16 361.95,358.59 361.95,358.59 361.95,358.59 361.95,358.59 362.14,357.93 362.14,357.93 362.14,357.93 362.15,357.33 362.15,357.33 362.15,357.33 362.03,356.74 362.03,356.74 362.03,356.74 361.79,356.14 361.79,356.14 361.53,355.68 361.53,355.68 361.22,355.28 361.22,355.28 360.87,354.91 360.87,354.91 360.47,354.57 360.47,354.57 360.02,354.26 360.02,354.26 359.52,353.99 359.52,353.99 358.98,353.76 358.98,353.76 358.39,353.58 358.39,353.58 357.77,353.45 357.77,353.45 357.12,353.38 357.12,353.38 356.44,353.36 356.44,353.36 355.74,353.41 355.74,353.41 355.03,353.53 355.03,353.53 354.31,353.72 354.31,353.72 353.60,353.98 353.60,353.98 352.89,354.31 352.89,354.31 352.19,354.71 352.19,354.71 351.52,355.19 351.52,355.19 350.87,355.73 350.87,355.73 350.27,356.35 350.27,356.35 349.71,357.03 349.71,357.03 349.20,357.77 349.20,357.77 348.75,358.58 348.75,358.58 348.36,359.44 348.20,360.00 348.20,360.00 347.94,360.86 347.84,361.44 347.84,361.44 347.69,362.34 347.67,362.97 347.67,363.52 347.68,364.06 347.72,364.60 347.78,365.14 347.87,365.68 347.97,366.22 348.11,366.76 348.26,367.31 348.45,367.85 348.66,368.38 348.89,368.92 349.15,369.44 349.43,369.97 349.74,370.48 350.08,370.99 350.44,371.48 350.82,371.97 351.23,372.44 351.66,372.90 352.12,373.35 352.60,373.78 353.10,374.20 353.62,374.59 354.16,374.97 354.73,375.33 355.31,375.67 355.92,375.98 356.54,376.28 357.18,376.55 357.83,376.79 358.50,377.01 359.19,377.21 359.89,377.37 360.60,377.51 361.32,377.62 362.05,377.71 362.79,377.76 363.54,377.78 364.29,377.77 365.05,377.73 365.81,377.66 366.57,377.56 367.34,377.42 368.10,377.26 368.86,377.06 369.62,376.82 370.37,376.56 371.12,376.26 371.86,375.93 372.59,375.57 373.31,375.17 374.01,374.74 374.71,374.28 375.39,373.79 376.05,373.27 376.69,372.72 377.31,372.14 377.92,371.53 378.50,370.89 379.05,370.23 379.59,369.53 380.09,368.81 380.57,368.07 381.02,367.30 381.44,366.51 381.83,365.70 382.19,364.87 382.52,364.02 382.81,363.15 383.06,362.26 383.29,361.36 383.47,360.44 383.62,359.51 383.73,358.57 383.80,357.63 383.83,356.67 383.82,355.71 383.77,354.74 383.68,353.77 383.55,352.79 383.37,351.82 383.16,350.85 382.91,349.88 382.61,348.92 382.27,347.97 381.89,347.02 381.47,346.09 381.01,345.17 380.51,344.26 379.96,343.36 379.38,342.49 378.76,341.63 378.10,340.80 377.40,339.99 376.67,339.20 375.90,338.44 375.09,337.70 374.25,337.00 373.38,336.32 372.47,335.68 371.54,335.07 370.57,334.50 369.58,333.96 368.56,333.46 367.51,333.00 366.45,332.58 365.36,332.20 364.25,331.86 363.12,331.57 361.97,331.32 360.81,331.11 359.64,330.95 358.45,330.84 357.25,330.77 356.05,330.76 354.84,330.79 353.63,330.87 352.42,330.99 351.20,331.17 349.99,331.40 348.79,331.68 347.59,332.00 346.40,332.38 345.22,332.80 344.05,333.28 342.90,333.80 341.77,334.37 340.65,334.99 339.56,335.66 338.49,336.37 337.45,337.13 336.43,337.93 335.44,338.78 334.49,339.66 333.57,340.60 332.68,341.57 331.83,342.58 331.02,343.63 330.25,344.71 329.52,345.83 328.83,346.99 328.19,348.17 327.60,349.39 327.05,350.63 326.56,351.90 326.11,353.19 325.72,354.51 325.38,355.85 325.09,357.20 324.86,358.57 324.69,359.96 324.57,361.36 324.50,362.76 324.50,364.18 324.55,365.60 324.67,367.02 324.84,368.44 325.07,369.86 325.36,371.28 325.71,372.69 326.12,374.09 326.59,375.48 327.11,376.85 327.70,378.21 328.34,379.55 329.04,380.87 329.79,382.16 330.60,383.43 331.47,384.67 332.39,385.88 333.36,387.06 334.38,388.20 335.45,389.30 336.58,390.37 337.74,391.39 338.96,392.37 340.21,393.31 341.51,394.20 342.85,395.03 344.23,395.82 345.65,396.56 347.09,397.24 348.57,397.86 350.08,398.43 351.62,398.94 353.18,399.39 354.77,399.78 356.37,400.11 358.00,400.37 359.64,400.57 361.29,400.71 362.95,400.78 364.62,400.78 366.29,400.72 367.96,400.59 369.64,400.39 371.31,400.13 372.97,399.80 374.62,399.40 376.26,398.93 377.89,398.40 379.50,397.80 381.09,397.14 382.65,396.41 384.19,395.61 385.70,394.75 387.18,393.83 388.62,392.85 390.03,391.81 391.40,390.71 392.73,389.55 394.01,388.34 395.24,387.07 396.43,385.75 397.57,384.37 398.65,382.95 399.67,381.48 400.64,379.97 401.55,378.42 402.40,376.82 403.18,375.19 403.90,373.52 404.55,371.82 405.13,370.08 405.65,368.32 406.09,366.54 406.46,364.73 406.76,362.91 407.05,360.51 407.10,359.05 407.18,357.29 407.20,354.90 407.07,353.42 406.90,351.12 406.67,349.65 406.31,347.37 405.95,345.91 405.41,343.65 404.94,342.21 404.20,340.00 403.61,338.58 402.69,336.42 401.99,335.04 400.88,332.96 400.07,331.63 398.78,329.63 397.87,328.36 396.41,326.46 395.39,325.25 393.77,323.47 392.66,322.33 390.88,320.68 389.68,319.63 387.76,318.11 386.47,317.15 384.41,315.79 383.05,314.92 380.87,313.72 379.44,312.96 377.15,311.94 375.66,311.28 373.28,310.44 371.74,309.90 369.27,309.25 367.70,308.83 365.16,308.37 363.55,308.08 360.97,307.82 359.34,307.66 356.72,307.61 355.09,307.58 352.45,307.73 350.81,307.83 348.18,308.19 346.55,308.42 344.54,308.86 341.83,309.53 340.24,309.96 338.28,310.63 335.64,311.63 334.12,312.25 332.22,313.15 329.71,314.46 328.27,315.28 326.48,316.40 324.12,318.01 322.79,319.00 321.13,320.34 318.96,322.23 317.77,323.39 316.27,324.92 314.32,327.06 313.28,328.39 311.57,330.60 310.62,332.03 309.09,334.38 308.26,335.88 306.91,338.35 306.21,339.94 305.05,342.51 304.48,344.16 303.53,346.83 303.09,348.54 302.36,351.27 302.06,353.03 301.56,355.82 301.40,357.61 301.12,360.44 301.11,362.80 301.13,365.15 301.24,367.50 301.45,369.84 301.76,372.18 302.16,374.51 302.65,376.83 303.24,379.13 303.93,381.42 304.71,383.68 305.59,385.92 306.55,388.12 307.61,390.29 308.76,392.42 309.99,394.51 311.31,396.55 312.72,398.55 314.21,400.49 315.78,402.38 317.43,404.20 319.16,405.97 320.97,407.67 322.84,409.30 324.78,410.86 326.79,412.34 328.86,413.75 331.00,415.07 333.19,416.32 335.43,417.47 337.73,418.55 340.07,419.53 342.45,420.42 344.87,421.22 347.33,421.92 349.82,422.53 352.34,423.03 354.89,423.44 357.45,423.75" fill="none" stroke="#dc2626" stroke-width="2" stroke-linecap="round" stroke-linejoin="round" stroke-opacity="0.72"/>
  <circle cx="360.00" cy="360.00" r="4" fill="#111827"/>
  <circle cx="357.51" cy="424.12" r="5" fill="#7c3aed"/>

  <g font-family="Arial, sans-serif" font-size="13" fill="#1f2933">
    <rect x="34" y="588" width="330" height="96" rx="6" fill="#ffffff" stroke="#d2d6dc"/>
    <circle cx="54" cy="613" r="5" fill="#229954"/><text x="70" y="618">True hole center and alignment tolerance</text>
    <circle cx="54" cy="638" r="5" fill="#d97706"/><text x="70" y="643">Random coarse vision estimate</text>
    <line x1="49" y1="664" x2="64" y2="664" stroke="#2563eb" stroke-width="3"/><text x="70" y="669">Commanded Archimedes spiral</text>
  </g>
  <text x="460" y="682" font-family="Consolas, monospace" font-size="12" fill="#4b5563">offset=(-0.0031, +0.0098) m</text>
</svg>
