<svg xmlns="http://www.w3.org/2000/svg" width="720" height="720" viewBox="0 0 720 720">
  <title>Archimedes spiral rubbing trajectory on the hole surface</title>
  <rect width="100%" height="100%" fill="#f7f7f4"/>
  <text x="34" y="38" font-family="Arial, sans-serif" font-size="22" fill="#1f2933">Archimedes Spiral Rubbing Trace</text>
  <text x="34" y="62" font-family="Arial, sans-serif" font-size="13" fill="#4b5563">Top view on the contact surface, coordinates relative to the true hole center.</text>

  <line x1="70" y1="325.84" x2="650" y2="325.84" stroke="#d2d6dc" stroke-width="1"/>
  <line x1="253.82" y1="70" x2="253.82" y2="650" stroke="#d2d6dc" stroke-width="1"/>

  <circle cx="360.00" cy="360.00" r="233.87" fill="none" stroke="#9aa6b2" stroke-width="2" stroke-dasharray="8 7"/>
  <circle cx="253.82" cy="325.84" r="31.18" fill="#27ae60" fill-opacity="0.16" stroke="#229954" stroke-width="2"/>
  <circle cx="253.82" cy="325.84" r="5" fill="#229954"/>
  <circle cx="360.00" cy="360.00" r="5" fill="#d97706"/>
  <polyline points="360.00,360.00 360.15,359.99 360.30,359.98 360.44,359.95 360.59,359.91 360.73,359.85 360.87,359.79 361.00,359.71 361.13,359.63 361.25,359.53 361.37,359.42 361.48,359.30 361.58,359.17 361.68,359.04 361.77,358.89 361.84,358.74 361.91,358.58 361.97,358.41 362.01,358.23 362.05,358.05 362.07,357.86 362.09,357.67 362.09,357.48 362.07,357.28 362.05,357.07 362.01,356.87 361.96,356.66 361.89,356.45 361.82,356.25 361.72,356.04 361.62,355.84 361.50,355.63 361.37,355.44 361.22,355.24 361.06,355.05 360.89,354.86 360.70,354.69 360.50,354.51 360.29,354.35 360.06,354.19 359.83,354.05 359.58,353.91 359.32,353.78 359.05,353.67 358.77,353.57 358.48,353.48 358.18,353.40 357.87,353.33 357.55,353.28 357.23,353.25 356.90,353.23 356.57,353.23 356.23,353.24 355.88,353.27 355.53,353.32 355.18,353.38 354.83,353.46 354.47,353.56 354.12,353.68 353.76,353.81 353.41,353.97 353.06,354.14 352.72,354.33 352.37,354.54 352.04,354.77 351.71,355.01 351.38,355.28 351.07,355.56 350.76,355.86 350.47,356.17 350.18,356.51 349.91,356.86 349.64,357.23 349.40,357.61 349.16,358.01 348.95,358.42 348.74,358.85 348.56,359.29 348.39,359.75 348.24,360.22 348.11,360.70 348.00,361.18 347.91,361.68 347.84,362.19 347.79,362.71 347.76,363.23 347.76,363.76 347.78,364.30 347.82,364.84 347.89,365.38 347.98,365.93 348.10,366.48 348.24,367.02 348.41,367.57 348.60,368.11 348.81,368.65 349.05,369.19 349.32,369.72 349.61,370.24 349.93,370.76 350.27,371.27 350.63,371.76 351.02,372.25 351.44,372.72 351.88,373.18 352.34,373.63 352.82,374.05 353.32,374.46 353.85,374.86 354.40,375.23 354.97,375.58 355.55,375.92 356.16,376.23 356.78,376.51 357.42,376.78 358.08,377.01 358.75,377.23 359.44,377.41 360.13,377.57 360.84,377.70 361.56,377.80 362.29,377.87 363.03,377.91 363.77,377.92 364.52,377.90 365.28,377.85 366.04,377.76 366.80,377.65 367.55,377.50 368.31,377.31 369.07,377.10 369.82,376.85 370.57,376.57 371.31,376.26 372.04,375.91 372.76,375.53 373.47,375.12 374.16,374.68 374.85,374.20 375.52,373.70 376.17,373.16 376.80,372.59 377.41,371.99 378.00,371.37 378.57,370.71 379.12,370.03 379.64,369.32 380.13,368.59 380.60,367.83 381.04,367.05 381.44,366.24 381.82,365.41 382.17,364.57 382.48,363.70 382.75,362.82 383.00,361.92 383.20,361.00 383.38,360.07 383.51,359.13 383.60,358.18 383.66,357.22 383.68,356.26 383.65,355.28 383.59,354.31 383.49,353.33 383.34,352.35 383.16,351.37 382.93,350.39 382.66,349.42 382.36,348.45 382.01,347.49 381.61,346.54 381.18,345.61 380.71,344.68 380.20,343.77 379.64,342.88 379.05,342.01 378.42,341.15 377.75,340.32 377.05,339.51 376.30,338.73 375.53,337.97 374.71,337.25 373.87,336.55 372.99,335.88 372.08,335.25 371.14,334.65 370.17,334.08 369.18,333.56 368.15,333.07 367.11,332.62 366.04,332.21 364.95,331.85 363.84,331.52 362.71,331.24 361.57,331.01 360.41,330.82 359.24,330.68 358.06,330.58 356.86,330.54 355.67,330.54 354.47,330.59 353.26,330.69 352.05,330.84 350.85,331.04 349.65,331.29 348.45,331.59 347.26,331.94 346.08,332.33 344.92,332.78 343.76,333.28 342.63,333.83 341.51,334.42 340.41,335.06 339.33,335.75 338.27,336.49 337.25,337.27 336.25,338.10 335.28,338.97 334.34,339.89 333.43,340.84 332.56,341.84 331.73,342.87 330.94,343.94 330.19,345.05 329.48,346.19 328.81,347.37 328.19,348.58 327.62,349.81 327.09,351.08 326.62,352.37 326.19,353.68 325.82,355.02 325.50,356.37 325.23,357.74 325.02,359.13 324.87,360.53 324.77,361.95 324.73,363.37 324.74,364.80 324.81,366.23 324.95,367.66 325.14,369.10 325.39,370.53 325.69,371.95 326.06,373.37 326.49,374.77 326.97,376.17 327.51,377.55 328.11,378.91 328.77,380.25 329.48,381.57 330.25,382.86 331.07,384.13 331.95,385.37 332.88,386.57 333.86,387.74 334.90,388.88 335.98,389.98 337.11,391.03 338.28,392.05 339.50,393.01 340.77,393.94 342.07,394.81 343.42,395.64 344.80,396.41 346.21,397.13 347.66,397.79 349.14,398.40 350.65,398.94 352.19,399.43 353.75,399.86 355.33,400.23 356.93,400.53 358.55,400.77 360.18,400.94 361.82,401.05 363.48,401.09 365.14,401.07 366.80,400.98 368.46,400.82 370.12,400.59 371.78,400.30 373.43,399.94 375.07,399.51 376.70,399.01 378.31,398.45 379.90,397.81 381.47,397.12 383.02,396.35 384.54,395.53 386.03,394.64 387.49,393.68 388.91,392.67 390.30,391.59 391.64,390.46 392.95,389.27 394.21,388.02 395.42,386.72 396.58,385.37 397.69,383.97 398.75,382.51 399.75,381.02 400.69,379.47 401.58,377.89 402.40,376.27 403.15,374.61 403.85,372.91 404.47,371.18 405.03,369.43 405.52,367.64 405.93,365.84 406.28,364.01 406.55,362.16 406.75,360.30 406.87,358.42 406.92,356.54 406.89,354.65 406.79,352.75 406.61,350.86 406.35,348.97 406.01,347.09 405.60,345.21 405.11,343.35 404.55,341.50 403.91,339.67 403.19,337.86 402.40,336.08 401.54,334.32 400.60,332.60 399.60,330.91 398.52,329.26 397.37,327.64 396.15,326.07 394.87,324.55 393.53,323.07 392.12,321.65 390.65,320.28 389.12,318.96 387.54,317.70 385.90,316.51 384.21,315.38 382.48,314.31 380.69,313.31 378.86,312.38 376.99,311.53 375.08,310.74 373.14,310.04 371.16,309.40 369.16,308.85 367.13,308.38 365.07,307.99 362.99,307.68 360.90,307.45 358.80,307.31 356.68,307.25 354.56,307.28 352.43,307.39 350.31,307.59 348.19,307.87 346.07,308.24 343.97,308.70 341.88,309.24 339.81,309.87 337.76,310.58 335.74,311.37 333.74,312.25 331.77,313.21 329.84,314.26 327.95,315.38 326.10,316.58 324.30,317.85 322.54,319.21 320.83,320.63 319.18,322.13 317.58,323.69 316.05,325.33 314.58,327.02 313.17,328.78 311.83,330.60 310.57,332.48 309.37,334.41 308.25,336.40 307.21,338.43 306.25,340.51 305.38,342.62 304.58,344.78 303.87,346.98 303.25,349.21 302.72,351.46 302.27,353.74 301.92,356.05 301.66,358.37 301.49,360.70 301.42,363.05 301.44,365.41 301.55,367.76 301.76,370.12 302.07,372.47 302.47,374.81 302.97,377.15 303.56,379.46 304.24,381.76 305.02,384.03 305.89,386.27 306.85,388.49 307.91,390.66 309.05,392.80 310.28,394.90 311.60,396.95 313.00,398.95 314.48,400.90 316.05,402.79 317.69,404.62 319.41,406.39 321.21,408.09 323.07,409.73 325.01,411.29 327.01,412.77 329.07,414.18 331.19,415.50 333.37,416.74 335.60,417.90 337.89,418.97 340.22,419.95 342.59,420.83 345.00,421.63 347.45,422.32 349.93,422.92 352.43,423.42 354.96,423.82 357.51,424.12 360.08,424.32 362.66,424.41 365.24,424.40 367.83,424.29 370.42,424.07 373.01,423.75 375.58,423.32 378.14,422.79 380.68,422.16 383.21,421.42 385.70,420.58 388.17,419.64 390.60,418.60 392.99,417.46 395.34,416.22 397.65,414.88 399.90,413.45 402.10,411.93 404.24,410.32 406.32,408.61 408.33,406.83 410.28,404.96 412.15,403.00 413.95,400.97 415.67,398.87 417.30,396.69 418.85,394.45 420.31,392.14 421.68,389.76 422.96,387.33 424.14,384.85 425.22,382.31 426.21,379.73 427.09,377.10 427.86,374.43 428.53,371.73 429.10,369.00 429.55,366.25 429.89,363.47 430.12,360.67 430.24,357.86 430.25,355.04 430.14,352.22 429.92,349.40 429.59,346.58 429.14,343.78 428.58,340.99 427.91,338.21 427.12,335.46 426.22,332.74 425.22,330.05 424.10,327.40 422.88,324.79 421.54,322.23 420.11,319.72 418.57,317.26 416.93,314.86 415.19,312.52 413.36,310.25 411.43,308.05 409.41,305.92 407.31,303.88 405.12,301.91 402.84,300.03 400.49,298.24 398.07,296.55 395.57,294.94 393.01,293.44 390.38,292.04 387.69,290.74 384.95,289.55 382.16,288.46 379.32,287.49 376.43,286.63 373.51,285.89 370.56,285.26 367.58,284.75 364.57,284.35 361.55,284.08 358.51,283.93 355.46,283.91 352.40,284.00 349.35,284.22 346.30,284.56 343.26,285.02 340.24,285.61 337.23,286.31 334.26,287.14 331.31,288.09 328.39,289.16 325.52,290.35 322.69,291.65 319.91,293.07 317.19,294.60 314.52,296.25 311.91,298.00 309.38,299.86 306.91,301.82 304.52,303.88 302.22,306.04 299.99,308.30 297.86,310.65 295.81,313.09 293.86,315.61 292.01,318.21 290.27,320.89 288.63,323.64 287.09,326.46 285.67,329.35 284.37,332.29" fill="none" stroke="#2563eb" stroke-width="3" stroke-linecap="round" stroke-linejoin="round"/>
  <polyline points="359.66,359.96 359.66,359.96 359.66,359.96 360.27,359.88 360.27,359.88 360.27,359.88 360.27,359.88 360.27,359.88 360.96,359.62 360.96,359.62 360.96,359.62 360.96,359.62 360.96,359.62 361.57,359.15 361.57,359.15 361.57,359.15 361.57,359.15 361.94,358.59 361.94,358.59 361.94,358.59 361.94,358.59 362.13,357.94 362.13,357.94 362.13,357.94 362.14,357.34 362.14,357.34 362.14,357.34 362.03,356.74 362.03,356.74 362.03,356.74 361.79,356.15 361.79,356.15 361.52,355.69 361.52,355.69 361.22,355.28 361.22,355.28 360.86,354.91 360.86,354.91 360.46,354.57 360.46,354.57 360.01,354.26 360.01,354.26 359.51,353.99 359.51,353.99 358.97,353.76 358.97,353.76 358.39,353.58 358.39,353.58 357.76,353.45 357.76,353.45 357.11,353.37 357.11,353.37 356.43,353.36 356.43,353.36 355.74,353.41 355.74,353.41 355.03,353.53 355.03,353.53 354.31,353.72 354.31,353.72 353.59,353.97 353.59,353.97 352.88,354.30 352.88,354.30 352.18,354.70 352.18,354.70 351.51,355.18 351.51,355.18 350.87,355.72 350.87,355.72 350.27,356.34 350.27,356.34 349.71,357.02 349.71,357.02 349.20,357.76 349.20,357.76 348.75,358.57 348.75,358.57 348.37,359.43 348.20,359.99 348.20,359.99 347.94,360.84 347.84,361.43 347.84,361.43 347.69,362.33 347.67,362.96 347.67,363.51 347.69,364.05 347.73,364.59 347.79,365.13 347.87,365.67 347.98,366.21 348.11,366.76 348.27,367.30 348.45,367.84 348.66,368.38 348.90,368.91 349.16,369.44 349.44,369.96 349.75,370.48 350.09,370.98 350.45,371.48 350.83,371.96 351.24,372.44 351.67,372.90 352.13,373.35 352.60,373.78 353.11,374.19 353.63,374.59 354.17,374.97 354.74,375.33 355.32,375.67 355.93,375.98 356.55,376.28 357.19,376.55 357.84,376.79 358.51,377.01 359.20,377.21 359.90,377.37 360.61,377.51 361.33,377.63 362.06,377.71 362.80,377.76 363.55,377.78 364.30,377.78 365.06,377.74 365.82,377.67 366.58,377.56 367.35,377.43 368.11,377.26 368.87,377.06 369.63,376.83 370.38,376.56 371.13,376.27 371.87,375.94 372.59,375.57 373.31,375.18 374.02,374.75 374.71,374.29 375.39,373.80 376.05,373.28 376.69,372.73 377.31,372.15 377.92,371.54 378.50,370.90 379.05,370.24 379.59,369.54 380.09,368.83 380.57,368.08 381.02,367.32 381.44,366.53 381.83,365.71 382.19,364.88 382.51,364.03 382.80,363.16 383.06,362.27 383.28,361.37 383.46,360.46 383.61,359.53 383.72,358.59 383.79,357.64 383.82,356.68 383.81,355.72 383.76,354.75 383.67,353.78 383.54,352.81 383.36,351.83 383.15,350.86 382.89,349.90 382.60,348.93 382.26,347.98 381.88,347.03 381.46,346.10 380.99,345.18 380.49,344.27 379.95,343.37 379.37,342.50 378.74,341.64 378.08,340.81 377.39,340.00 376.65,339.21 375.88,338.45 375.07,337.71 374.23,337.01 373.36,336.33 372.46,335.69 371.52,335.08 370.56,334.50 369.56,333.97 368.54,333.47 367.50,333.00 366.43,332.58 365.34,332.20 364.23,331.86 363.10,331.57 361.96,331.32 360.80,331.11 359.62,330.95 358.44,330.84 357.24,330.77 356.04,330.75 354.83,330.78 353.62,330.86 352.40,330.99 351.19,331.17 349.98,331.39 348.78,331.67 347.58,331.99 346.39,332.37 345.21,332.79 344.04,333.27 342.89,333.79 341.76,334.36 340.65,334.98 339.56,335.64 338.49,336.35 337.44,337.11 336.43,337.91 335.44,338.76 334.49,339.65 333.56,340.58 332.68,341.55 331.83,342.56 331.02,343.61 330.25,344.70 329.52,345.82 328.83,346.97 328.20,348.15 327.60,349.37 327.06,350.61 326.56,351.88 326.12,353.17 325.73,354.49 325.39,355.83 325.10,357.18 324.87,358.55 324.70,359.94 324.58,361.34 324.52,362.74 324.51,364.16 324.57,365.58 324.68,367.00 324.85,368.42 325.08,369.84 325.38,371.26 325.73,372.67 326.13,374.07 326.60,375.46 327.13,376.84 327.71,378.19 328.36,379.53 329.06,380.85 329.81,382.15 330.62,383.42 331.49,384.66 332.41,385.87 333.38,387.04 334.40,388.19 335.48,389.29 336.60,390.36 337.76,391.38 338.98,392.36 340.24,393.30 341.54,394.19 342.88,395.03 344.25,395.82 345.67,396.55 347.12,397.24 348.60,397.86 350.10,398.43 351.64,398.94 353.20,399.39 354.79,399.78 356.39,400.11 358.02,400.38 359.66,400.58 361.31,400.71 362.97,400.78 364.63,400.79 366.31,400.73 367.98,400.60 369.65,400.40 371.32,400.14 372.98,399.81 374.64,399.41 376.28,398.94 377.90,398.41 379.51,397.81 381.10,397.15 382.66,396.42 384.20,395.63 385.71,394.77 387.19,393.85 388.63,392.87 390.04,391.83 391.40,390.73 392.73,389.57 394.01,388.36 395.25,387.09 396.43,385.77 397.57,384.40 398.65,382.98 399.67,381.51 400.64,380.00 401.55,378.44 402.39,376.84 403.17,375.21 403.89,373.54 404.54,371.84 405.13,370.11 405.64,368.35 406.08,366.56 406.45,364.76 406.84,362.38 406.94,360.93 407.10,359.18 407.21,356.80 407.14,355.32 407.08,353.56 406.90,351.16 406.65,349.68 406.29,347.39 405.94,345.93 405.39,343.67 404.92,342.23 404.18,340.02 403.59,338.60 402.67,336.44 401.97,335.06 400.86,332.98 400.05,331.64 398.76,329.65 397.85,328.37 396.39,326.48 395.37,325.26 393.75,323.48 392.64,322.34 390.86,320.69 389.66,319.64 387.73,318.13 386.45,317.16 384.39,315.80 383.03,314.93 380.85,313.73 379.42,312.97 377.13,311.94 375.64,311.29 373.25,310.44 371.72,309.91 369.25,309.25 367.67,308.83 365.14,308.37 363.53,308.08 360.95,307.82 359.32,307.66 356.70,307.60 355.07,307.57 352.43,307.72 350.79,307.82 348.16,308.18 346.53,308.41 344.52,308.85 341.81,309.52 340.23,309.95 338.26,310.62 335.63,311.61 334.11,312.23 332.21,313.14 329.70,314.44 328.26,315.26 326.47,316.38 324.11,317.98 322.78,318.98 321.13,320.32 318.96,322.20 317.76,323.37 316.26,324.90 314.32,327.04 313.28,328.37 311.57,330.58 310.62,332.00 309.09,334.35 308.26,335.86 306.91,338.32 306.21,339.91 305.06,342.48 304.49,344.14 303.54,346.80 303.10,348.51 302.38,351.24 302.08,353.00 301.57,355.79 301.41,357.59 301.14,360.41 301.12,362.78 301.14,365.13 301.26,367.47 301.47,369.82 301.77,372.16 302.18,374.49 302.67,376.81 303.27,379.11 303.95,381.40 304.73,383.66 305.61,385.89 306.57,388.10 307.63,390.27 308.78,392.40 310.02,394.49 311.34,396.53 312.75,398.53 314.24,400.47 315.81,402.36 317.46,404.19 319.19,405.95 320.99,407.65 322.87,409.29 324.81,410.84 326.82,412.33 328.89,413.74 331.02,415.06 333.21,416.31 335.46,417.47 337.75,418.54 340.09,419.53 342.48,420.42 344.90,421.22 347.36,421.92 349.85,422.53 352.37,423.03 354.91,423.44 357.48,423.75 360.05,423.96 362.65,424.07 365.24,424.07 367.85,423.97 369.85,423.81 373.06,423.39 375.03,423.12 378.22,422.46 380.17,422.03 383.32,421.12 385.23,420.53 388.31,419.38 390.16,418.63 393.16,417.24 394.95,416.33 397.85,414.70 399.55,413.65 402.33,411.79 403.94,410.59 406.57,408.52 408.09,407.18 410.55,404.91 411.96,403.44 414.25,400.97 415.53,399.38 417.62,396.73 418.77,395.03 420.65,392.22 421.97,389.87 423.25,387.45 424.44,384.98 425.53,382.46 426.51,379.90 427.40,377.29 428.18,374.64 428.85,371.96 429.42,369.24 429.88,366.50 430.22,363.74 430.45,360.96 430.58,358.17 430.58,355.36 430.48,352.56 430.26,349.75 429.92,346.95 429.48,344.15 428.91,341.38 428.24,338.61 427.45,335.88 426.55,333.17 425.54,330.49 424.42,327.85 423.19,325.25 421.85,322.69 420.41,320.18 418.87,317.73 417.22,315.34 415.48,313.01 413.64,310.74 411.70,308.55 409.67,306.42 407.56,304.38 405.36,302.42 403.08,300.54 400.72,298.75 398.28,297.05 395.77,295.45 393.20,293.94 390.56,292.54 387.86,291.24 385.11,290.04 382.30,288.95 379.45,287.97 376.55,287.11 373.62,286.35 370.65,285.72 367.66,285.20 364.64,284.80 361.60,284.52 358.54,284.35 355.48,284.31 352.41,284.40 349.34,284.60 346.28,284.93 343.23,285.37 340.19,285.94 337.17,286.64 334.18,287.45 331.21,288.38 328.28,289.43 325.40,290.60 322.55,291.89 319.76,293.29 317.02,294.80 314.34,296.42 311.72,298.15 309.17,299.99 306.69,301.93 304.29,303.97 301.96,306.11 299.73,308.35 297.58,310.67 295.52,313.09 293.56,315.58 291.70,318.16 289.94,320.82 288.29,323.55 286.75,326.35 285.32,329.21 284.01,332.13" fill="none" stroke="#dc2626" stroke-width="2" stroke-linecap="round" stroke-linejoin="round" stroke-opacity="0.72"/>
  <circle cx="360.00" cy="360.00" r="4" fill="#111827"/>
  <circle cx="284.37" cy="332.29" r="5" fill="#7c3aed"/>

  <g font-family="Arial, sans-serif" font-size="13" fill="#1f2933">
    <rect x="34" y="588" width="330" height="96" rx="6" fill="#ffffff" stroke="#d2d6dc"/>
    <circle cx="54" cy="613" r="5" fill="#229954"/><text x="70" y="618">True hole center and alignment tolerance</text>
    <circle cx="54" cy="638" r="5" fill="#d97706"/><text x="70" y="643">Random coarse vision estimate</text>
    <line x1="49" y1="664" x2="64" y2="664" stroke="#2563eb" stroke-width="3"/><text x="70" y="669">Commanded Archimedes spiral</text>
  </g>
  <text x="460" y="682" font-family="Consolas, monospace" font-size="12" fill="#4b5563">offset=(+0.0136, -0.0044) m</text>
</svg>
