<svg xmlns="http://www.w3.org/2000/svg" width="720" height="720" viewBox="0 0 720 720">
  <title>Archimedes spiral rubbing trajectory on the hole surface</title>
  <rect width="100%" height="100%" fill="#f7f7f4"/>
  <text x="34" y="38" font-family="Arial, sans-serif" font-size="22" fill="#1f2933">Archimedes Spiral Rubbing Trace</text>
  <text x="34" y="62" font-family="Arial, sans-serif" font-size="13" fill="#4b5563">Top view on the contact surface, coordinates relative to the true hole center.</text>

  <line x1="70" y1="409.87" x2="650" y2="409.87" stroke="#d2d6dc" stroke-width="1"/>
  <line x1="324.41" y1="70" x2="324.41" y2="650" stroke="#d2d6dc" stroke-width="1"/>

  <circle cx="360.00" cy="360.00" r="233.87" fill="none" stroke="#9aa6b2" stroke-width="2" stroke-dasharray="8 7"/>
  <circle cx="324.41" cy="409.87" r="31.18" fill="#27ae60" fill-opacity="0.16" stroke="#229954" stroke-width="2"/>
  <circle cx="324.41" cy="409.87" r="5" fill="#229954"/>
  <circle cx="360.00" cy="360.00" r="5" fill="#d97706"/>
  <polyline points="360.00,360.00 360.15,359.99 360.30,359.98 360.44,359.95 360.59,359.91 360.73,359.85 360.87,359.79 361.00,359.71 361.13,359.63 361.25,359.53 361.37,359.42 361.48,359.30 361.58,359.17 361.68,359.04 361.77,358.89 361.84,358.74 361.91,358.58 361.97,358.41 362.01,358.23 362.05,358.05 362.07,357.86 362.09,357.67 362.09,357.48 362.07,357.28 362.05,357.07 362.01,356.87 361.96,356.66 361.89,356.45 361.82,356.25 361.72,356.04 361.62,355.84 361.50,355.63 361.37,355.44 361.22,355.24 361.06,355.05 360.89,354.86 360.70,354.69 360.50,354.51 360.29,354.35 360.06,354.19 359.83,354.05 359.58,353.91 359.32,353.78 359.05,353.67 358.77,353.57 358.48,353.48 358.18,353.40 357.87,353.33 357.55,353.28 357.23,353.25 356.90,353.23 356.57,353.23 356.23,353.24 355.88,353.27 355.53,353.32 355.18,353.38 354.83,353.46 354.47,353.56 354.12,353.68 353.76,353.81 353.41,353.97 353.06,354.14 352.72,354.33 352.37,354.54 352.04,354.77 351.71,355.01 351.38,355.28 351.07,355.56 350.76,355.86 350.47,356.17 350.18,356.51 349.91,356.86 349.64,357.23 349.40,357.61 349.16,358.01 348.95,358.42 348.74,358.85 348.56,359.29 348.39,359.75 348.24,360.22 348.11,360.70 348.00,361.18 347.91,361.68 347.84,362.19 347.79,362.71 347.76,363.23 347.76,363.76 347.78,364.30 347.82,364.84 347.89,365.38 347.98,365.93 348.10,366.48 348.24,367.02 348.41,367.57 348.60,368.11 348.81,368.65 349.05,369.19 349.32,369.72 349.61,370.24 349.93,370.76 350.27,371.27 350.63,371.76 351.02,372.25 351.44,372.72 351.88,373.18 352.34,373.63 352.82,374.05 353.32,374.46 353.85,374.86 354.40,375.23 354.97,375.58 355.55,375.92 356.16,376.23 356.78,376.51 357.42,376.78 358.08,377.01 358.75,377.23 359.44,377.41 360.13,377.57 360.84,377.70 361.56,377.80 362.29,377.87 363.03,377.91 363.77,377.92 364.52,377.90 365.28,377.85 366.04,377.76 366.80,377.65 367.55,377.50 368.31,377.31 369.07,377.10 369.82,376.85 370.57,376.57 371.31,376.26 372.04,375.91 372.76,375.53 373.47,375.12 374.16,374.68 374.85,374.20 375.52,373.70 376.17,373.16 376.80,372.59 377.41,371.99 378.00,371.37 378.57,370.71 379.12,370.03 379.64,369.32 380.13,368.59 380.60,367.83 381.04,367.05 381.44,366.24 381.82,365.41 382.17,364.57 382.48,363.70 382.75,362.82 383.00,361.92 383.20,361.00 383.38,360.07 383.51,359.13 383.60,358.18 383.66,357.22 383.68,356.26 383.65,355.28 383.59,354.31 383.49,353.33 383.34,352.35 383.16,351.37 382.93,350.39 382.66,349.42 382.36,348.45 382.01,347.49 381.61,346.54 381.18,345.61 380.71,344.68 380.20,343.77 379.64,342.88 379.05,342.01 378.42,341.15 377.75,340.32 377.05,339.51 376.30,338.73 375.53,337.97 374.71,337.25 373.87,336.55 372.99,335.88 372.08,335.25 371.14,334.65 370.17,334.08 369.18,333.56 368.15,333.07 367.11,332.62 366.04,332.21 364.95,331.85 363.84,331.52 362.71,331.24 361.57,331.01 360.41,330.82 359.24,330.68 358.06,330.58 356.86,330.54 355.67,330.54 354.47,330.59 353.26,330.69 352.05,330.84 350.85,331.04 349.65,331.29 348.45,331.59 347.26,331.94 346.08,332.33 344.92,332.78 343.76,333.28 342.63,333.83 341.51,334.42 340.41,335.06 339.33,335.75 338.27,336.49 337.25,337.27 336.25,338.10 335.28,338.97 334.34,339.89 333.43,340.84 332.56,341.84 331.73,342.87 330.94,343.94 330.19,345.05 329.48,346.19 328.81,347.37 328.19,348.58 327.62,349.81 327.09,351.08 326.62,352.37 326.19,353.68 325.82,355.02 325.50,356.37 325.23,357.74 325.02,359.13 324.87,360.53 324.77,361.95 324.73,363.37 324.74,364.80 324.81,366.23 324.95,367.66 325.14,369.10 325.39,370.53 325.69,371.95 326.06,373.37 326.49,374.77 326.97,376.17 327.51,377.55 328.11,378.91 328.77,380.25" fill="none" stroke="#2563eb" stroke-width="3" stroke-linecap="round" stroke-linejoin="round"/>
  <polyline points="360.00,360.00 360.00,360.00 360.00,360.00 360.00,360.00 360.00,360.00 360.51,359.90 360.51,359.90 360.51,359.90 360.51,359.90 361.03,359.64 361.03,359.64 361.03,359.64 361.03,359.64 361.49,359.22 361.49,359.22 361.49,359.22 361.49,359.22 361.82,358.65 361.82,358.65 361.82,358.65 362.00,358.10 362.00,358.10 362.00,358.10 362.05,357.52 362.05,357.52 362.05,357.52 361.99,356.92 361.99,356.92 361.99,356.92 361.80,356.31 361.80,356.31 361.80,356.31 361.50,355.70 361.50,355.70 361.19,355.24 361.19,355.24 361.19,355.24 360.71,354.73 360.71,354.73 360.26,354.36 360.26,354.36 359.78,354.04 359.78,354.04 359.27,353.78 359.27,353.78 358.71,353.57 358.71,353.57 358.12,353.40 358.12,353.40 357.50,353.30 357.50,353.30 356.85,353.25 356.85,353.25 356.17,353.26 356.17,353.26 355.48,353.34 355.48,353.34 354.77,353.50 354.77,353.50 354.07,353.72 354.07,353.72 353.36,354.01 353.36,354.01 352.67,354.38 352.67,354.38 352.00,354.82 352.00,354.82 351.35,355.34 350.94,355.70 350.94,355.70 350.41,356.27 350.41,356.27 349.87,356.94 349.54,357.41 349.54,357.41 349.12,358.12 348.86,358.63 348.86,358.63 348.53,359.41 348.33,359.98 348.33,359.98 348.10,360.82 347.96,361.43 347.96,361.43 347.84,362.32 347.79,362.96 347.77,363.52 347.77,363.52 347.81,364.45 347.87,365.10 347.95,365.68 348.05,366.24 348.18,366.79 348.34,367.34 348.52,367.88 348.72,368.42 348.95,368.96 349.21,369.49 349.49,370.02 349.80,370.54 350.13,371.05 350.48,371.55 350.86,372.04 351.26,372.52 351.69,372.98 352.14,373.43 352.62,373.87 353.11,374.29 353.63,374.69 354.17,375.07 354.73,375.43 355.31,375.77 355.90,376.09 356.52,376.39 357.15,376.66 357.80,376.91 358.47,377.13 359.14,377.33 359.84,377.50 360.54,377.64 361.26,377.75 361.98,377.83 362.72,377.89 363.46,377.91 364.20,377.90 364.96,377.86 365.71,377.79 366.47,377.69 367.23,377.55 367.99,377.39 368.74,377.19 369.50,376.95 370.25,376.69 370.99,376.39 371.72,376.05 372.45,375.69 373.16,375.29 373.86,374.86 374.55,374.40 375.23,373.91 375.88,373.38 376.52,372.83 377.14,372.24 377.75,371.63 378.32,370.99 378.88,370.32 379.41,369.62 379.91,368.90 380.39,368.15 380.84,367.38 381.26,366.58 381.65,365.76 382.01,364.93 382.34,364.07 382.63,363.19 382.89,362.30 383.11,361.39 383.30,360.47 383.44,359.53 383.56,358.59 383.63,357.63 383.66,356.67 383.66,355.70 383.61,354.72 383.52,353.75 383.40,352.77 383.23,351.79 383.02,350.81 382.77,349.84 382.48,348.87 382.15,347.91 381.77,346.95 381.36,346.01 380.90,345.08 380.41,344.17 379.87,343.27 379.30,342.39 378.68,341.52 378.03,340.68 377.34,339.86 376.62,339.07 375.85,338.30 375.06,337.56 374.22,336.85 373.36,336.17 372.46,335.52 371.54,334.91 370.58,334.33 369.60,333.79 368.59,333.28 367.55,332.82 366.49,332.39 365.41,332.01 364.31,331.67 363.19,331.37 362.05,331.12 360.90,330.91 359.74,330.75 358.56,330.63 357.37,330.57 356.18,330.55 354.98,330.58 353.78,330.66 352.57,330.78 351.37,330.96 350.16,331.19 348.97,331.47 347.77,331.79 346.59,332.17 345.42,332.60 344.26,333.08 343.12,333.60 341.99,334.18 340.88,334.80 339.79,335.47 338.73,336.18 337.69,336.95 336.68,337.75 335.70,338.61 334.74,339.50 333.83,340.44 332.94,341.42 332.09,342.43 331.29,343.49 330.52,344.58 329.79,345.71 329.10,346.87 328.47,348.07 327.87,349.29 327.33,350.54 326.83,351.82 326.38,353.12 325.99,354.45 325.65,355.79 325.36,357.16 325.12,358.54 324.94,359.94 324.82,361.34 324.75,362.76 324.74,364.19 324.79,365.62 324.90,367.05 325.07,368.48 325.29,369.91 325.57,371.34 325.91,372.76 326.31,374.17 326.77,375.57 327.29,376.95 327.87,378.32 328.50,379.67" fill="none" stroke="#dc2626" stroke-width="2" stroke-linecap="round" stroke-linejoin="round" stroke-opacity="0.72"/>
  <circle cx="360.00" cy="360.00" r="4" fill="#111827"/>
  <circle cx="328.77" cy="380.25" r="5" fill="#7c3aed"/>

  <g font-family="Arial, sans-serif" font-size="13" fill="#1f2933">
    <rect x="34" y="588" width="330" height="96" rx="6" fill="#ffffff" stroke="#d2d6dc"/>
    <circle cx="54" cy="613" r="5" fill="#229954"/><text x="70" y="618">True hole center and alignment tolerance</text>
    <circle cx="54" cy="638" r="5" fill="#d97706"/><text x="70" y="643">Random coarse vision estimate</text>
    <line x1="49" y1="664" x2="64" y2="664" stroke="#2563eb" stroke-width="3"/><text x="70" y="669">Commanded Archimedes spiral</text>
  </g>
  <text x="460" y="682" font-family="Consolas, monospace" font-size="12" fill="#4b5563">offset=(+0.0046, +0.0064) m</text>
</svg>
