<svg xmlns="http://www.w3.org/2000/svg" width="720" height="720" viewBox="0 0 720 720">
  <title>Archimedes spiral rubbing trajectory on the hole surface</title>
  <rect width="100%" height="100%" fill="#f7f7f4"/>
  <text x="34" y="38" font-family="Arial, sans-serif" font-size="22" fill="#1f2933">Archimedes Spiral Rubbing Trace</text>
  <text x="34" y="62" font-family="Arial, sans-serif" font-size="13" fill="#4b5563">Top view on the contact surface, coordinates relative to the true hole center.</text>

  <line x1="70" y1="487.93" x2="650" y2="487.93" stroke="#d2d6dc" stroke-width="1"/>
  <line x1="372.72" y1="70" x2="372.72" y2="650" stroke="#d2d6dc" stroke-width="1"/>

  <circle cx="360.00" cy="360.00" r="233.87" fill="none" stroke="#9aa6b2" stroke-width="2" stroke-dasharray="8 7"/>
  <circle cx="372.72" cy="487.93" r="31.18" fill="#27ae60" fill-opacity="0.16" stroke="#229954" stroke-width="2"/>
  <circle cx="372.72" cy="487.93" r="5" fill="#229954"/>
  <circle cx="360.00" cy="360.00" r="5" fill="#d97706"/>
  <polyline points="360.00,360.00 360.15,359.99 360.30,359.98 360.44,359.95 360.59,359.91 360.73,359.85 360.87,359.79 361.00,359.71 361.13,359.63 361.25,359.53 361.37,359.42 361.48,359.30 361.58,359.17 361.68,359.04 361.77,358.89 361.84,358.74 361.91,358.58 361.97,358.41 362.01,358.23 362.05,358.05 362.07,357.86 362.09,357.67 362.09,357.48 362.07,357.28 362.05,357.07 362.01,356.87 361.96,356.66 361.89,356.45 361.82,356.25 361.72,356.04 361.62,355.84 361.50,355.63 361.37,355.44 361.22,355.24 361.06,355.05 360.89,354.86 360.70,354.69 360.50,354.51 360.29,354.35 360.06,354.19 359.83,354.05 359.58,353.91 359.32,353.78 359.05,353.67 358.77,353.57 358.48,353.48 358.18,353.40 357.87,353.33 357.55,353.28 357.23,353.25 356.90,353.23 356.57,353.23 356.23,353.24 355.88,353.27 355.53,353.32 355.18,353.38 354.83,353.46 354.47,353.56 354.12,353.68 353.76,353.81 353.41,353.97 353.06,354.14 352.72,354.33 352.37,354.54 352.04,354.77 351.71,355.01 351.38,355.28 351.07,355.56 350.76,355.86 350.47,356.17 350.18,356.51 349.91,356.86 349.64,357.23 349.40,357.61 349.16,358.01 348.95,358.42 348.74,358.85 348.56,359.29 348.39,359.75 348.24,360.22 348.11,360.70 348.00,361.18 347.91,361.68 347.84,362.19 347.79,362.71 347.76,363.23 347.76,363.76 347.78,364.30 347.82,364.84 347.89,365.38 347.98,365.93 348.10,366.48 348.24,367.02 348.41,367.57 348.60,368.11 348.81,368.65 349.05,369.19 349.32,369.72 349.61,370.24 349.93,370.76 350.27,371.27 350.63,371.76 351.02,372.25 351.44,372.72 351.88,373.18 352.34,373.63 352.82,374.05 353.32,374.46 353.85,374.86 354.40,375.23 354.97,375.58 355.55,375.92 356.16,376.23 356.78,376.51 357.42,376.78 358.08,377.01 358.75,377.23 359.44,377.41 360.13,377.57 360.84,377.70 361.56,377.80 362.29,377.87 363.03,377.91 363.77,377.92 364.52,377.90 365.28,377.85 366.04,377.76 366.80,377.65 367.55,377.50 368.31,377.31 369.07,377.10 369.82,376.85 370.57,376.57 371.31,376.26 372.04,375.91 372.76,375.53 373.47,375.12 374.16,374.68 374.85,374.20 375.52,373.70 376.17,373.16 376.80,372.59 377.41,371.99 378.00,371.37 378.57,370.71 379.12,370.03 379.64,369.32 380.13,368.59 380.60,367.83 381.04,367.05 381.44,366.24 381.82,365.41 382.17,364.57 382.48,363.70 382.75,362.82 383.00,361.92 383.20,361.00 383.38,360.07 383.51,359.13 383.60,358.18 383.66,357.22 383.68,356.26 383.65,355.28 383.59,354.31 383.49,353.33 383.34,352.35 383.16,351.37 382.93,350.39 382.66,349.42 382.36,348.45 382.01,347.49 381.61,346.54 381.18,345.61 380.71,344.68 380.20,343.77 379.64,342.88 379.05,342.01 378.42,341.15 377.75,340.32 377.05,339.51 376.30,338.73 375.53,337.97 374.71,337.25 373.87,336.55 372.99,335.88 372.08,335.25 371.14,334.65 370.17,334.08 369.18,333.56 368.15,333.07 367.11,332.62 366.04,332.21 364.95,331.85 363.84,331.52 362.71,331.24 361.57,331.01 360.41,330.82 359.24,330.68 358.06,330.58 356.86,330.54 355.67,330.54 354.47,330.59 353.26,330.69 352.05,330.84 350.85,331.04 349.65,331.29 348.45,331.59 347.26,331.94 346.08,332.33 344.92,332.78 343.76,333.28 342.63,333.83 341.51,334.42 340.41,335.06 339.33,335.75 338.27,336.49 337.25,337.27 336.25,338.10 335.28,338.97 334.34,339.89 333.43,340.84 332.56,341.84 331.73,342.87 330.94,343.94 330.19,345.05 329.48,346.19 328.81,347.37 328.19,348.58 327.62,349.81 327.09,351.08 326.62,352.37 326.19,353.68 325.82,355.02 325.50,356.37 325.23,357.74 325.02,359.13 324.87,360.53 324.77,361.95 324.73,363.37 324.74,364.80 324.81,366.23 324.95,367.66 325.14,369.10 325.39,370.53 325.69,371.95 326.06,373.37 326.49,374.77 326.97,376.17 327.51,377.55 328.11,378.91 328.77,380.25 329.48,381.57 330.25,382.86 331.07,384.13 331.95,385.37 332.88,386.57 333.86,387.74 334.90,388.88 335.98,389.98 337.11,391.03 338.28,392.05 339.50,393.01 340.77,393.94 342.07,394.81 343.42,395.64 344.80,396.41 346.21,397.13 347.66,397.79 349.14,398.40 350.65,398.94 352.19,399.43 353.75,399.86 355.33,400.23 356.93,400.53 358.55,400.77 360.18,400.94 361.82,401.05 363.48,401.09 365.14,401.07 366.80,400.98 368.46,400.82 370.12,400.59 371.78,400.30 373.43,399.94 375.07,399.51 376.70,399.01 378.31,398.45 379.90,397.81 381.47,397.12 383.02,396.35 384.54,395.53 386.03,394.64 387.49,393.68 388.91,392.67 390.30,391.59 391.64,390.46 392.95,389.27 394.21,388.02 395.42,386.72 396.58,385.37 397.69,383.97 398.75,382.51 399.75,381.02 400.69,379.47 401.58,377.89 402.40,376.27 403.15,374.61 403.85,372.91 404.47,371.18 405.03,369.43 405.52,367.64 405.93,365.84 406.28,364.01 406.55,362.16 406.75,360.30 406.87,358.42 406.92,356.54 406.89,354.65 406.79,352.75 406.61,350.86 406.35,348.97 406.01,347.09 405.60,345.21 405.11,343.35 404.55,341.50 403.91,339.67 403.19,337.86 402.40,336.08 401.54,334.32 400.60,332.60 399.60,330.91 398.52,329.26 397.37,327.64 396.15,326.07 394.87,324.55 393.53,323.07 392.12,321.65 390.65,320.28 389.12,318.96 387.54,317.70 385.90,316.51 384.21,315.38 382.48,314.31 380.69,313.31 378.86,312.38 376.99,311.53 375.08,310.74 373.14,310.04 371.16,309.40 369.16,308.85 367.13,308.38 365.07,307.99 362.99,307.68 360.90,307.45 358.80,307.31 356.68,307.25 354.56,307.28 352.43,307.39 350.31,307.59 348.19,307.87 346.07,308.24 343.97,308.70 341.88,309.24 339.81,309.87 337.76,310.58 335.74,311.37 333.74,312.25 331.77,313.21 329.84,314.26 327.95,315.38 326.10,316.58 324.30,317.85 322.54,319.21 320.83,320.63 319.18,322.13 317.58,323.69 316.05,325.33 314.58,327.02 313.17,328.78 311.83,330.60 310.57,332.48 309.37,334.41 308.25,336.40 307.21,338.43 306.25,340.51 305.38,342.62 304.58,344.78 303.87,346.98 303.25,349.21 302.72,351.46 302.27,353.74 301.92,356.05 301.66,358.37 301.49,360.70 301.42,363.05 301.44,365.41 301.55,367.76 301.76,370.12 302.07,372.47 302.47,374.81 302.97,377.15 303.56,379.46 304.24,381.76 305.02,384.03 305.89,386.27 306.85,388.49 307.91,390.66 309.05,392.80 310.28,394.90 311.60,396.95 313.00,398.95 314.48,400.90 316.05,402.79 317.69,404.62 319.41,406.39 321.21,408.09 323.07,409.73 325.01,411.29 327.01,412.77 329.07,414.18 331.19,415.50 333.37,416.74 335.60,417.90 337.89,418.97 340.22,419.95 342.59,420.83 345.00,421.63 347.45,422.32 349.93,422.92 352.43,423.42 354.96,423.82 357.51,424.12 360.08,424.32 362.66,424.41 365.24,424.40 367.83,424.29 370.42,424.07 373.01,423.75 375.58,423.32 378.14,422.79 380.68,422.16 383.21,421.42 385.70,420.58 388.17,419.64 390.60,418.60 392.99,417.46 395.34,416.22 397.65,414.88 399.90,413.45 402.10,411.93 404.24,410.32 406.32,408.61 408.33,406.83 410.28,404.96 412.15,403.00 413.95,400.97 415.67,398.87 417.30,396.69 418.85,394.45 420.31,392.14 421.68,389.76 422.96,387.33 424.14,384.85 425.22,382.31 426.21,379.73 427.09,377.10 427.86,374.43 428.53,371.73 429.10,369.00 429.55,366.25 429.89,363.47 430.12,360.67 430.24,357.86 430.25,355.04 430.14,352.22 429.92,349.40 429.59,346.58 429.14,343.78 428.58,340.99 427.91,338.21 427.12,335.46 426.22,332.74 425.22,330.05 424.10,327.40 422.88,324.79 421.54,322.23 420.11,319.72 418.57,317.26 416.93,314.86 415.19,312.52 413.36,310.25 411.43,308.05 409.41,305.92 407.31,303.88 405.12,301.91 402.84,300.03 400.49,298.24 398.07,296.55 395.57,294.94 393.01,293.44 390.38,292.04 387.69,290.74 384.95,289.55 382.16,288.46 379.32,287.49 376.43,286.63 373.51,285.89 370.56,285.26 367.58,284.75 364.57,284.35 361.55,284.08 358.51,283.93 355.46,283.91 352.40,284.00 349.35,284.22 346.30,284.56 343.26,285.02 340.24,285.61 337.23,286.31 334.26,287.14 331.31,288.09 328.39,289.16 325.52,290.35 322.69,291.65 319.91,293.07 317.19,294.60 314.52,296.25 311.91,298.00 309.38,299.86 306.91,301.82 304.52,303.88 302.22,306.04 299.99,308.30 297.86,310.65 295.81,313.09 293.86,315.61 292.01,318.21 290.27,320.89 288.63,323.64 287.09,326.46 285.67,329.35 284.37,332.29 283.18,335.29 282.11,338.35 281.16,341.44 280.33,344.58 279.63,347.76 279.06,350.97 278.62,354.20 278.30,357.45 278.12,360.72 278.06,364.01 278.14,367.29 278.35,370.58 278.69,373.86 279.16,377.13 279.77,380.39 280.51,383.62 281.37,386.83 282.37,390.01 283.50,393.15 284.75,396.24 286.13,399.29 287.63,402.29 289.25,405.23 291.00,408.11 292.86,410.92 294.83,413.66 296.92,416.32 299.11,418.90 301.41,421.40 303.82,423.81 306.32,426.12 308.92,428.33 311.61,430.44 314.38,432.44 317.24,434.34 320.18,436.12 323.19,437.79 326.28,439.34 329.42,440.76 332.63,442.06 335.89,443.23 339.20,444.27 342.56,445.18 345.96,445.96 349.39,446.60 352.85,447.10 356.33,447.47 359.83,447.69 363.34,447.78 366.86,447.72 370.38,447.53 373.90,447.19 377.40,446.71 380.89,446.09 384.36,445.33 387.80,444.43 391.20,443.39 394.57,442.21 397.89,440.90 401.17,439.45 404.38,437.87 407.54,436.16 410.63,434.32 413.65,432.35 416.60,430.27 419.46,428.06 422.24,425.74 424.92,423.30 427.51,420.75 430.00,418.10 432.39,415.34 434.66,412.49 436.83,409.54 438.88,406.51 440.80,403.38 442.61,400.18 444.29,396.91 445.83,393.56 447.25,390.15 448.53,386.68 449.67,383.16 450.67,379.58 451.52,375.97 452.24,372.32 452.80,368.63 453.22,364.92 453.49,361.19 453.62,357.45 453.59,353.70 453.41,349.94 453.08,346.19 452.60,342.45 451.97,338.73 451.19,335.03 450.26,331.36 449.18,327.72 447.96,324.13 446.59,320.58 445.07,317.08 443.42,313.64 441.63,310.26 439.70,306.96 437.63,303.72 435.44,300.57 433.11,297.51 430.66,294.53 428.09,291.65 425.41,288.87 422.61,286.20 419.70,283.64 416.68,281.19 413.57,278.87 410.36,276.66 407.06,274.58 403.67,272.64 400.20,270.82 396.66,269.15 393.05,267.62 389.37,266.23 385.64,264.98 381.85,263.89 378.02,262.95 374.14,262.16 370.23,261.52 366.30,261.04 362.34,260.72 358.36,260.56 354.38,260.55 350.39,260.71 346.41,261.03 342.44,261.50 338.48,262.14 334.55,262.93 330.64,263.89 326.77,265.00 322.94,266.26 319.16,267.68 315.44,269.26 311.78,270.98 308.18,272.85 304.65,274.87 301.21,277.03 297.85,279.33 294.57,281.76 291.40,284.33 288.32,287.03 285.35,289.85 282.50,292.80 279.75,295.86 277.13,299.03 274.64,302.31 272.27,305.69 270.04,309.17 267.95,312.74 266.00,316.39 264.19,320.13 262.53,323.94 261.03,327.82 259.68,331.77 258.48,335.77 257.45,339.82 256.58,343.91 255.87,348.04 255.32,352.20 254.95,356.39 254.74,360.60 254.70,364.81 254.83,369.03 255.12,373.25 255.59,377.46 256.23,381.65 257.03,385.82 258.00,389.96 259.14,394.06 260.44,398.12 261.91,402.13 263.54,406.08 265.33,409.97 267.27,413.79 269.37,417.54 271.62,421.20 274.02,424.77 276.57,428.25 279.25,431.63 282.07,434.91 285.03,438.07 288.11,441.12 291.32,444.05 294.65,446.84 298.09,449.51 301.64,452.04 305.29,454.43 309.04,456.67 312.88,458.77 316.81,460.71 320.82,462.50 324.90,464.12 329.05,465.59 333.26,466.88 337.53,468.01 341.84,468.97 346.19,469.76 350.58,470.37" fill="none" stroke="#2563eb" stroke-width="3" stroke-linecap="round" stroke-linejoin="round"/>
  <polyline points="359.98,360.78 360.18,360.21 360.18,360.21 360.18,360.21 360.18,360.21 360.18,360.21 360.75,359.85 360.75,359.85 360.75,359.85 360.75,359.85 360.75,359.85 361.36,359.39 361.36,359.39 361.36,359.39 361.36,359.39 361.79,358.88 361.79,358.88 361.79,358.88 361.79,358.88 362.07,358.27 362.07,358.27 362.07,358.27 362.15,357.70 362.15,357.70 362.15,357.70 362.12,357.13 362.12,357.13 362.12,357.13 361.97,356.53 361.97,356.53 361.97,356.53 361.69,355.94 361.69,355.94 361.39,355.49 361.39,355.49 361.06,355.09 361.06,355.09 360.68,354.74 360.68,354.74 360.25,354.41 360.25,354.41 359.78,354.12 359.78,354.12 359.26,353.87 359.26,353.87 358.69,353.66 358.69,353.66 358.09,353.51 358.09,353.51 357.45,353.41 357.45,353.41 356.79,353.36 356.79,353.36 356.10,353.38 356.10,353.38 355.39,353.47 355.39,353.47 354.68,353.62 354.68,353.62 353.96,353.84 353.96,353.84 353.24,354.14 353.24,354.14 352.54,354.50 352.54,354.50 351.85,354.94 351.85,354.94 351.19,355.45 351.19,355.45 350.57,356.03 350.57,356.03 349.98,356.68 349.98,356.68 349.45,357.40 349.45,357.40 348.97,358.17 348.97,358.17 348.55,359.01 348.55,359.01 348.20,359.89 348.06,360.47 348.06,360.47 347.83,361.34 347.76,361.95 347.76,361.95 347.65,362.86 347.65,363.49 347.68,364.05 347.72,364.60 347.78,365.14 347.86,365.68 347.97,366.22 348.11,366.76 348.26,367.31 348.45,367.85 348.65,368.38 348.89,368.92 349.15,369.45 349.43,369.97 349.74,370.48 350.08,370.99 350.43,371.49 350.82,371.97 351.23,372.45 351.66,372.91 352.11,373.35 352.59,373.78 353.09,374.20 353.62,374.59 354.16,374.97 354.73,375.33 355.31,375.67 355.91,375.98 356.54,376.28 357.17,376.55 357.83,376.79 358.50,377.01 359.19,377.21 359.88,377.37 360.59,377.51 361.32,377.62 362.05,377.71 362.79,377.76 363.53,377.78 364.29,377.77 365.05,377.73 365.81,377.66 366.57,377.56 367.33,377.42 368.10,377.25 368.86,377.05 369.62,376.82 370.37,376.56 371.12,376.26 371.86,375.93 372.59,375.56 373.31,375.17 374.01,374.74 374.70,374.28 375.38,373.79 376.04,373.27 376.69,372.72 377.31,372.14 377.91,371.53 378.49,370.89 379.05,370.22 379.58,369.53 380.09,368.81 380.57,368.07 381.02,367.30 381.44,366.51 381.83,365.70 382.19,364.87 382.52,364.01 382.81,363.14 383.06,362.26 383.29,361.36 383.47,360.44 383.62,359.51 383.73,358.57 383.80,357.62 383.83,356.67 383.82,355.70 383.77,354.73 383.68,353.76 383.55,352.79 383.38,351.82 383.16,350.85 382.91,349.88 382.61,348.92 382.27,347.96 381.89,347.02 381.47,346.08 381.01,345.16 380.51,344.25 379.97,343.36 379.38,342.49 378.76,341.63 378.10,340.80 377.40,339.99 376.67,339.20 375.90,338.44 375.09,337.70 374.25,337.00 373.38,336.32 372.48,335.68 371.54,335.07 370.58,334.50 369.58,333.96 368.56,333.46 367.52,333.00 366.45,332.58 365.36,332.20 364.25,331.86 363.12,331.57 361.98,331.32 360.81,331.11 359.64,330.95 358.45,330.84 357.26,330.78 356.06,330.76 354.85,330.79 353.64,330.87 352.42,331.00 351.21,331.17 350.00,331.40 348.79,331.68 347.59,332.01 346.40,332.38 345.22,332.81 344.06,333.28 342.91,333.80 341.77,334.37 340.66,334.99 339.57,335.66 338.50,336.37 337.45,337.13 336.44,337.93 335.45,338.78 334.49,339.67 333.57,340.60 332.68,341.57 331.83,342.58 331.02,343.63 330.25,344.72 329.52,345.84 328.83,346.99 328.19,348.18 327.60,349.39 327.06,350.64 326.56,351.91 326.11,353.20 325.72,354.52 325.38,355.85 325.09,357.21 324.86,358.58 324.69,359.97 324.57,361.36 324.50,362.77 324.50,364.18 324.55,365.60 324.67,367.03 324.84,368.45 325.07,369.87 325.36,371.28 325.71,372.69 326.12,374.09 326.58,375.48 327.11,376.86 327.69,378.21 328.33,379.55 329.03,380.87 329.79,382.17 330.60,383.43 331.46,384.67 332.38,385.88 333.35,387.06 334.38,388.20 335.45,389.31 336.57,390.37 337.74,391.39 338.95,392.37 340.21,393.31 341.51,394.20 342.85,395.04 344.22,395.82 345.64,396.56 347.09,397.24 348.57,397.86 350.08,398.43 351.61,398.94 353.18,399.39 354.76,399.78 356.37,400.11 357.99,400.37 359.63,400.57 361.28,400.71 362.94,400.78 364.61,400.78 366.28,400.72 367.96,400.59 369.63,400.39 371.30,400.12 372.96,399.79 374.62,399.39 376.26,398.93 377.88,398.40 379.49,397.80 381.08,397.13 382.65,396.40 384.18,395.61 385.69,394.75 387.17,393.83 388.62,392.85 390.03,391.80 391.39,390.70 392.72,389.54 394.00,388.33 395.24,387.06 396.43,385.74 397.56,384.37 398.64,382.95 399.67,381.48 400.64,379.96 401.55,378.41 402.39,376.81 403.18,375.18 403.90,373.51 404.55,371.81 405.13,370.08 405.65,368.32 406.09,366.53 406.46,364.73 406.76,362.90 407.05,360.50 407.10,359.05 407.19,357.29 407.20,354.89 407.07,353.41 406.94,351.65 406.66,349.25 406.36,347.78 405.90,345.50 405.49,344.05 404.84,341.81 404.32,340.38 403.48,338.19 402.84,336.79 401.82,334.67 401.07,333.32 399.87,331.27 399.01,329.97 397.64,328.02 396.67,326.78 395.13,324.94 394.06,323.76 392.36,322.05 391.20,320.95 389.35,319.37 388.11,318.36 386.12,316.92 384.79,316.00 382.67,314.72 381.28,313.91 379.04,312.79 377.58,312.09 375.24,311.15 373.73,310.56 371.30,309.81 369.74,309.33 367.24,308.77 365.64,308.42 363.08,308.06 361.46,307.83 358.86,307.68 357.22,307.58 354.60,307.63 352.96,307.66 350.32,307.92 348.69,308.09 346.06,308.55 344.44,308.85 342.44,309.37 339.76,310.15 338.18,310.64 336.24,311.40 333.64,312.50 332.14,313.18 330.28,314.16 327.81,315.57 326.41,316.45 324.66,317.65 322.36,319.35 321.07,320.40 319.46,321.81 317.36,323.78 316.21,325.00 314.34,327.07 313.28,328.40 311.57,330.61 310.63,332.03 309.09,334.38 308.26,335.89 306.91,338.36 306.21,339.95 305.05,342.52 304.48,344.17 303.53,346.84 303.10,348.54 302.36,351.28 302.06,353.04 301.56,355.83 301.40,357.62 301.12,360.45 301.10,362.81 301.13,365.16 301.24,367.50 301.45,369.85 301.75,372.19 302.15,374.52 302.65,376.84 303.24,379.14 303.93,381.43 304.71,383.69 305.58,385.92 306.55,388.12 307.60,390.29 308.75,392.42 309.99,394.51 311.31,396.56 312.71,398.55 314.21,400.49 315.78,402.38 317.43,404.21 319.16,405.97 320.96,407.67 322.83,409.30 324.78,410.86 326.78,412.34 328.86,413.75 330.99,415.07 333.18,416.32 335.42,417.48 337.72,418.55 340.06,419.53 342.44,420.42 344.87,421.22 347.32,421.92 349.82,422.52 352.34,423.03 354.88,423.44 357.44,423.75 360.02,423.95 362.61,424.06 365.21,424.06 367.82,423.95 370.42,423.75 372.42,423.51 375.62,422.96 377.58,422.61 380.75,421.82 382.68,421.31 385.80,420.28 387.69,419.61 390.73,418.33 392.56,417.50 395.51,415.99 397.26,415.01 400.09,413.26 401.76,412.13 404.46,410.17 406.04,408.90 408.59,406.72 410.05,405.32 412.43,402.94 413.78,401.41 415.97,398.85 417.19,397.20 419.18,394.47 420.26,392.71 422.03,389.83 423.25,387.42 424.44,384.94 425.53,382.43 426.52,379.86 427.41,377.25 428.19,374.60 428.87,371.92 429.43,369.21 429.89,366.47 430.24,363.70 430.47,360.92 430.59,358.13 430.60,355.33 430.50,352.52 430.28,349.71 429.95,346.91 429.50,344.12 428.94,341.34 428.27,338.58 427.48,335.84 426.58,333.13 425.57,330.46 424.45,327.82 423.22,325.22 421.89,322.66 420.45,320.16 418.90,317.71 417.26,315.31 415.51,312.98 413.67,310.72 411.74,308.52 409.71,306.40 407.60,304.36 405.40,302.40 403.12,300.52 400.76,298.74 398.32,297.04 395.81,295.44 393.24,293.93 390.60,292.53 387.90,291.23 385.15,290.03 382.34,288.95 379.49,287.97 376.59,287.11 373.66,286.35 370.69,285.72 367.70,285.20 364.68,284.80 361.63,284.52 358.58,284.36 355.52,284.32 352.45,284.41 349.38,284.61 346.31,284.94 343.26,285.39 340.22,285.96 337.20,286.66 334.21,287.47 331.24,288.40 328.31,289.46 325.42,290.63 322.58,291.91 319.78,293.31 317.04,294.83 314.36,296.45 311.74,298.18 309.18,300.02 306.70,301.97 304.30,304.01 301.98,306.15 299.74,308.38 297.59,310.71 295.53,313.13 293.57,315.63 291.71,318.21 289.95,320.86 288.29,323.59 286.75,326.39 285.32,329.25 284.00,332.18 282.80,335.16 281.72,338.19 280.77,341.26 279.93,344.38 279.23,347.53 278.65,350.72 278.19,353.93 277.87,357.17 277.68,360.42 277.62,363.68 277.70,366.94 277.91,370.21 278.25,373.48 278.72,376.73 279.32,379.97 280.06,383.19 280.93,386.38 281.93,389.54 283.06,392.66 284.31,395.75 285.70,398.78 287.20,401.77 288.83,404.70 290.58,407.57 292.45,410.37 294.44,413.10 296.53,415.75 298.74,418.33 301.05,420.82 303.47,423.22 305.98,425.53 308.59,427.74 311.29,429.85 314.08,431.85 316.95,433.75 319.91,435.53 322.93,437.20 326.03,438.75 329.20,440.18 332.42,441.48 335.70,442.66 339.03,443.71 342.40,444.63 345.81,445.42 349.26,446.07 352.74,446.58 356.24,446.96 359.76,447.20 363.29,447.30 366.83,447.26 370.37,447.08 373.90,446.75 377.43,446.29 380.93,445.69 384.42,444.95 387.88,444.06 391.30,443.04 394.69,441.89 398.03,440.59 401.32,439.17 404.55,437.61 407.73,435.92 410.84,434.10 413.87,432.16 416.83,430.10 419.71,427.91 422.50,425.61 425.20,423.20 427.81,420.68 430.31,418.05 432.71,415.31 435.00,412.49 437.18,409.56 439.24,406.55 441.18,403.45 442.99,400.28 444.68,397.03 446.24,393.70 447.66,390.32 448.95,386.87 450.09,383.37 451.10,379.82 451.97,376.22 452.68,372.59 453.26,368.93 453.68,365.24 453.96,361.53 454.08,357.81 454.06,354.08 453.88,350.34 453.55,346.61 453.07,342.89 452.44,339.19 451.66,335.51 450.73,331.85 449.65,328.23 448.42,324.65 447.05,321.11 445.53,317.63 443.87,314.20 442.07,310.83 440.14,307.54 438.06,304.32 435.86,301.17 433.53,298.12 431.07,295.15 428.49,292.28 425.80,289.51 422.99,286.84 420.06,284.28 417.04,281.84 413.91,279.51 410.69,277.31 407.37,275.23 403.97,273.28 400.49,271.47 396.93,269.79 393.30,268.25 389.61,266.86 385.86,265.61 382.06,264.51 378.21,263.56 374.31,262.76 370.39,262.11 366.43,261.62 362.45,261.29 358.46,261.12 354.46,261.10 350.45,261.24 346.45,261.54 342.45,262.00 338.48,262.62 334.52,263.40 330.60,264.33 326.71,265.42 322.86,266.67 319.06,268.07 315.31,269.62 311.63,271.32 308.01,273.17 304.46,275.16 301.00,277.30 297.61,279.57 294.32,281.98 291.13,284.52 288.03,287.19 285.04,289.99 282.17,292.91 279.41,295.94 276.77,299.08 274.25,302.33 271.87,305.68 269.62,309.13 267.52,312.67 265.55,316.30 263.73,320.01 262.06,323.79 260.54,327.64 259.18,331.56 257.97,335.53 256.93,339.55 256.04,343.62 255.33,347.72 254.78,351.86 254.39,356.02 254.18,360.19 254.13,364.38 254.26,368.58 254.55,372.77 255.02,376.96 255.65,381.13 256.45,385.27 257.43,389.39 258.57,393.47 259.88,397.51 261.35,401.50 262.98,405.44 264.78,409.31 266.73,413.12 268.84,416.85 271.10,420.50 273.51,424.06 276.06,427.53 278.76,430.90 281.59,434.17 284.56,437.33 287.66,440.37 290.88,443.29 294.23,446.09 297.68,448.75 301.25,451.28 304.92,453.67 308.69,455.92 312.56,458.02 316.50,459.96 320.53,461.76 324.64,463.39 328.81,464.86 333.04,466.17 337.33,467.31 341.67,468.28 346.04,469.09 350.45,469.71" fill="none" stroke="#dc2626" stroke-width="2" stroke-linecap="round" stroke-linejoin="round" stroke-opacity="0.72"/>
  <circle cx="360.00" cy="360.00" r="4" fill="#111827"/>
  <circle cx="350.58" cy="470.37" r="5" fill="#7c3aed"/>

  <g font-family="Arial, sans-serif" font-size="13" fill="#1f2933">
    <rect x="34" y="588" width="330" height="96" rx="6" fill="#ffffff" stroke="#d2d6dc"/>
    <circle cx="54" cy="613" r="5" fill="#229954"/><text x="70" y="618">True hole center and alignment tolerance</text>
    <circle cx="54" cy="638" r="5" fill="#d97706"/><text x="70" y="643">Random coarse vision estimate</text>
    <line x1="49" y1="664" x2="64" y2="664" stroke="#2563eb" stroke-width="3"/><text x="70" y="669">Commanded Archimedes spiral</text>
  </g>
  <text x="460" y="682" font-family="Consolas, monospace" font-size="12" fill="#4b5563">offset=(-0.0016, +0.0164) m</text>
</svg>
