<svg xmlns="http://www.w3.org/2000/svg" width="720" height="720" viewBox="0 0 720 720">
  <title>Archimedes spiral rubbing trajectory on the hole surface</title>
  <rect width="100%" height="100%" fill="#f7f7f4"/>
  <text x="34" y="38" font-family="Arial, sans-serif" font-size="22" fill="#1f2933">Archimedes Spiral Rubbing Trace</text>
  <text x="34" y="62" font-family="Arial, sans-serif" font-size="13" fill="#4b5563">Top view on the contact surface, coordinates relative to the true hole center.</text>

  <line x1="70" y1="229.28" x2="650" y2="229.28" stroke="#d2d6dc" stroke-width="1"/>
  <line x1="310.19" y1="70" x2="310.19" y2="650" stroke="#d2d6dc" stroke-width="1"/>

  <circle cx="360.00" cy="360.00" r="233.87" fill="none" stroke="#9aa6b2" stroke-width="2" stroke-dasharray="8 7"/>
  <circle cx="310.19" cy="229.28" r="31.18" fill="#27ae60" fill-opacity="0.16" stroke="#229954" stroke-width="2"/>
  <circle cx="310.19" cy="229.28" r="5" fill="#229954"/>
  <circle cx="360.00" cy="360.00" r="5" fill="#d97706"/>
  <polyline points="360.00,360.00 360.20,359.99 360.40,359.97 360.59,359.93 360.78,359.87 360.97,359.80 361.16,359.72 361.34,359.62 361.51,359.50 361.67,359.37 361.83,359.23 361.98,359.07 362.11,358.90 362.24,358.72 362.35,358.52 362.46,358.32 362.55,358.10 362.62,357.88 362.69,357.64 362.73,357.40 362.77,357.15 362.78,356.90 362.78,356.63 362.77,356.37 362.73,356.10 362.68,355.82 362.61,355.55 362.53,355.27 362.42,355.00 362.30,354.72 362.16,354.45 362.00,354.18 361.82,353.91 361.63,353.65 361.41,353.40 361.18,353.15 360.93,352.91 360.67,352.69 360.38,352.47 360.08,352.26 359.77,352.06 359.44,351.88 359.09,351.71 358.73,351.56 358.36,351.42 357.97,351.30 357.57,351.20 357.16,351.11 356.74,351.05 356.31,351.00 355.87,350.97 355.42,350.97 354.97,350.99 354.51,351.03 354.04,351.09 353.57,351.17 353.10,351.28 352.63,351.41 352.16,351.57 351.69,351.75 351.22,351.95 350.75,352.18 350.29,352.44 349.83,352.72 349.38,353.02 348.94,353.35 348.51,353.70 348.09,354.08 347.68,354.48 347.29,354.90 346.91,355.34 346.54,355.81 346.19,356.30 345.86,356.81 345.55,357.35 345.26,357.90 344.99,358.47 344.74,359.06 344.52,359.67 344.32,360.29 344.15,360.93 344.00,361.58 343.88,362.25 343.78,362.92 343.72,363.61 343.69,364.31 343.68,365.02 343.71,365.73 343.77,366.45 343.86,367.18 343.98,367.91 344.13,368.64 344.32,369.36 344.54,370.09 344.80,370.82 345.08,371.54 345.40,372.25 345.76,372.96 346.15,373.66 346.57,374.35 347.02,375.02 347.51,375.69 348.03,376.33 348.58,376.96 349.17,377.58 349.78,378.17 350.43,378.74 351.10,379.29 351.80,379.81 352.53,380.31 353.29,380.78 354.07,381.22 354.88,381.64 355.71,382.02 356.56,382.37 357.44,382.69 358.33,382.97 359.25,383.21 360.18,383.42 361.12,383.60 362.08,383.73 363.06,383.83 364.04,383.88 365.03,383.89 366.03,383.87 367.04,383.80 368.05,383.68 369.06,383.53 370.07,383.33 371.08,383.09 372.09,382.80 373.09,382.47 374.09,382.09 375.07,381.68 376.05,381.22 377.01,380.71 377.96,380.16 378.89,379.57 379.80,378.94 380.69,378.26 381.55,377.54 382.40,376.79 383.21,375.99 384.00,375.16 384.76,374.28 385.49,373.37 386.18,372.43 386.84,371.45 387.46,370.44 388.05,369.39 388.59,368.32 389.09,367.22 389.55,366.09 389.97,364.93 390.34,363.76 390.66,362.56 390.94,361.34 391.17,360.10 391.34,358.85 391.47,357.58 391.55,356.30 391.57,355.01 391.54,353.71 391.45,352.41 391.32,351.10 391.12,349.80 390.88,348.49 390.58,347.19 390.22,345.89 389.81,344.60 389.34,343.32 388.82,342.06 388.24,340.81 387.61,339.58 386.93,338.37 386.19,337.18 385.40,336.01 384.56,334.87 383.67,333.76 382.73,332.68 381.74,331.64 380.70,330.63 379.62,329.66 378.49,328.73 377.32,327.84 376.11,326.99 374.85,326.20 373.56,325.44 372.23,324.74 370.87,324.09 369.48,323.49 368.05,322.95 366.60,322.46 365.12,322.03 363.61,321.66 362.09,321.35 360.54,321.09 358.98,320.91 357.41,320.78 355.82,320.72 354.22,320.72 352.62,320.79 351.01,320.92 349.41,321.12 347.80,321.38 346.20,321.72 344.60,322.11 343.02,322.58 341.45,323.11 339.89,323.71 338.35,324.37 336.83,325.10 335.34,325.90 333.87,326.75 332.44,327.67 331.03,328.66 329.66,329.70 328.33,330.80 327.03,331.96 325.78,333.18 324.58,334.45 323.42,335.78 322.31,337.16 321.25,338.59 320.25,340.07 319.30,341.59 318.42,343.16 317.59,344.77 316.82,346.42 316.12,348.10 315.49,349.82 314.92,351.57 314.43,353.36 314.00,355.16 313.64,356.99 313.36,358.84 313.16,360.71 313.02,362.60 312.97,364.49 312.99,366.40 313.09,368.31 313.26,370.22 313.52,372.13 313.85,374.04 314.26,375.94 314.75,377.82 315.31,379.70 315.96,381.56 316.68,383.40 317.48,385.21 318.36,387.00 319.31,388.76 320.33,390.48 321.43,392.17 322.60,393.82 323.84,395.43 325.15,396.99 326.53,398.50 327.97,399.97 329.48,401.38 331.05,402.73 332.67,404.02 334.36,405.25 336.10,406.42 337.89,407.51 339.73,408.54 341.62,409.50 343.55,410.39 345.52,411.19 347.54,411.93 349.58,412.58 351.66,413.15 353.77,413.64 355.91,414.04 358.07,414.36 360.24,414.59 362.43,414.74 364.64,414.79 366.85,414.76 369.07,414.64 371.28,414.43 373.50,414.12 375.71,413.73 377.91,413.25 380.09,412.68 382.26,412.01 384.41,411.26 386.53,410.42 388.63,409.49 390.69,408.47 392.72,407.37 394.70,406.18 396.65,404.91 398.55,403.56 400.39,402.13 402.19,400.61 403.93,399.03 405.61,397.36 407.22,395.63 408.77,393.83 410.26,391.96 411.66,390.02 413.00,388.02 414.26,385.97 415.43,383.85 416.53,381.69 417.54,379.48 418.46,377.22 419.30,374.91 420.04,372.57 420.69,370.19 421.25,367.78 421.71,365.34 422.07,362.88 422.33,360.40 422.50,357.90 422.56,355.39 422.52,352.86 422.38,350.34 422.14,347.81 421.80,345.29 421.35,342.78 420.80,340.28 420.15,337.79 419.40,335.33 418.55,332.89 417.59,330.48 416.54,328.10 415.39,325.76 414.14,323.47 412.79,321.21 411.36,319.01 409.83,316.86 408.21,314.76 406.50,312.73 404.70,310.76 402.83,308.86 400.87,307.03 398.83,305.28 396.72,303.60 394.54,302.01 392.29,300.50 389.97,299.08 387.59,297.75 385.15,296.51 382.66,295.37 380.11,294.32 377.52,293.38 374.89,292.54 372.21,291.80 369.50,291.17 366.76,290.65 363.99,290.24 361.20,289.93 358.40,289.74 355.57,289.67 352.75,289.70 349.91,289.85 347.08,290.12 344.25,290.49 341.43,290.99 338.63,291.60 335.84,292.32 333.08,293.16 330.35,294.10 327.65,295.16 324.99,296.34 322.37,297.62 319.79,299.01 317.27,300.50 314.80,302.10 312.39,303.80 310.05,305.61 307.78,307.51 305.57,309.50 303.45,311.59 301.40,313.77 299.44,316.03 297.56,318.38 295.78,320.81 294.09,323.31 292.50,325.88 291.01,328.53 289.62,331.24 288.34,334.01 287.17,336.83 286.11,339.71 285.16,342.64 284.33,345.61 283.62,348.62 283.03,351.66 282.56,354.73 282.21,357.82 281.99,360.94 281.89,364.07 281.92,367.21 282.07,370.35 282.35,373.49 282.76,376.63 283.29,379.75 283.96,382.86 284.74,385.95 285.66,389.01 286.69,392.04 287.85,395.03 289.14,397.98 290.54,400.89 292.07,403.74 293.71,406.53 295.46,409.27 297.33,411.94 299.31,414.53 301.40,417.06 303.59,419.50 305.88,421.85 308.28,424.12 310.76,426.30 313.34,428.38 316.01,430.36 318.76,432.23 321.59,434.00 324.50,435.66 327.47,437.20 330.52,438.63 333.62,439.93 336.78,441.11 340.00,442.17 343.26,443.10 346.57,443.90 349.91,444.56 353.28,445.10 356.68,445.50 360.11,445.76 363.54,445.88 366.99,445.87 370.44,445.72 373.90,445.43 377.34,445.00 380.77,444.43 384.19,443.72 387.58,442.88 390.94,441.90 394.27,440.78 397.56,439.52 400.80,438.13 403.99,436.61 407.12,434.96 410.20,433.18 413.20,431.27 416.13,429.24 418.99,427.09 421.76,424.82 424.45,422.44 427.04,419.94 429.53,417.34 431.93,414.63 434.22,411.82 436.40,408.92 438.47,405.93 440.42,402.85 442.24,399.68 443.95,396.44 445.52,393.13 446.97,389.75 448.28,386.30 449.45,382.80 450.48,379.24 451.38,375.64 452.13,372.00 452.73,368.33 453.19,364.62 453.50,360.89 453.66,357.15 453.67,353.39 453.52,349.63 453.23,345.87 452.79,342.11 452.19,338.37 451.44,334.65 450.54,330.95 449.50,327.29 448.30,323.66 446.96,320.07 445.47,316.54 443.83,313.06 442.06,309.64 440.14,306.29 438.09,303.01 435.91,299.81 433.59,296.69 431.14,293.66 428.57,290.73 425.88,287.90 423.07,285.17 420.15,282.55 417.12,280.04 413.99,277.66 410.76,275.39 407.43,273.26 404.01,271.25 400.51,269.38 396.92,267.65 393.27,266.06 389.54,264.62 385.76,263.32 381.91,262.17 378.02,261.18 374.08,260.34 370.10,259.66 366.09,259.14 362.06,258.78 358.01,258.58 353.94,258.54 349.87,258.67 345.80,258.96 341.73,259.41 337.68,260.03 333.65,260.81 329.65,261.75 325.68,262.86 321.74,264.12 317.86,265.55 314.03,267.13 310.26,268.87 306.55,270.76 302.92,272.80 299.36,274.99 295.89,277.33 292.50,279.81 289.22,282.42 286.03,285.18 282.95,288.06 279.99,291.07 277.14,294.20 274.41,297.45 271.82,300.81 269.35,304.28 267.02,307.85 264.83,311.52 262.79,315.28 260.90,319.13 259.16,323.06 257.57,327.06 256.14,331.13 254.88,335.26 253.78,339.45 252.85,343.68 252.08,347.96 251.49,352.27 251.07,356.61 250.82,360.97 250.75,365.34 250.85,369.72 251.13,374.11 251.59,378.48 252.22,382.84 253.03,387.18 254.01,391.50 255.16,395.77 256.49,400.01 257.99,404.20 259.66,408.33 261.50,412.39 263.50,416.39 265.67,420.31 267.99,424.15 270.47,427.90 273.11,431.55 275.89,435.10 278.82,438.54 281.89,441.87 285.09,445.07 288.43,448.16 291.89,451.11 295.48,453.92 299.18,456.59 302.99,459.12 306.91,461.50 310.92,463.72 315.03,465.78 319.23,467.68 323.51,469.41 327.86,470.97 332.27,472.36 336.75,473.58 341.28,474.61 345.85,475.47 350.46,476.14 355.11,476.62 359.77,476.93 364.46,477.04 369.15,476.97 373.84,476.70 378.53,476.25 383.20,475.61 387.85,474.79 392.48,473.77 397.06,472.57 401.60,471.18 406.09,469.61 410.52,467.86 414.89,465.93 419.18,463.83 423.39,461.54 427.51,459.09 431.54,456.47 435.46,453.69 439.28,450.75 442.98,447.65 446.56,444.40 450.01,441.00 453.33,437.46 456.52,433.79 459.55,429.99 462.44,426.06 465.17,422.01 467.74,417.85 470.14,413.58 472.38,409.21 474.44,404.75 476.33,400.20 478.03,395.58 479.55,390.88 480.89,386.11 482.03,381.29 482.98,376.42 483.74,371.51 484.30,366.56 484.66,361.59 484.82,356.60 484.78,351.59 484.54,346.59 484.10,341.59 483.46,336.61 482.62,331.64 481.58,326.71 480.34,321.81 478.91,316.96 477.27,312.17 475.45,307.44 473.43,302.77 471.23,298.18 468.83,293.68 466.26,289.27 463.51,284.96 460.58,280.76 457.48,276.67 454.22,272.71 450.79,268.87 447.21,265.17 443.48,261.60 439.60,258.19 435.58,254.92 431.42,251.82 427.14,248.88 422.74,246.11 418.23,243.52 413.60,241.10 408.88,238.87 404.06,236.82 399.16,234.97 394.18,233.31 389.13,231.85 384.02,230.59 378.86,229.54 373.64,228.69 368.39,228.06 363.12,227.63 357.82,227.41 352.51,227.40 347.19,227.61 341.88,228.03 336.58,228.67" fill="none" stroke="#2563eb" stroke-width="3" stroke-linecap="round" stroke-linejoin="round"/>
  <polyline points="359.44,359.81 360.02,359.87 360.02,359.87 360.02,359.87 360.02,359.87 360.77,359.74 360.77,359.74 360.77,359.74 360.77,359.74 361.51,359.40 361.51,359.40 361.51,359.40 362.02,359.00 362.02,359.00 362.02,359.00 362.42,358.49 362.42,358.49 362.42,358.49 362.70,357.88 362.70,357.88 362.70,357.88 362.85,357.19 362.85,357.19 362.85,356.62 362.85,356.62 362.79,356.08 362.79,356.08 362.65,355.54 362.65,355.54 362.45,355.00 362.45,355.00 362.17,354.47 362.17,354.47 361.81,353.95 361.81,353.95 361.39,353.45 361.39,353.45 360.89,352.98 360.89,352.98 360.32,352.55 360.32,352.55 359.69,352.16 359.69,352.16 358.99,351.83 358.99,351.83 358.24,351.55 358.24,351.55 357.43,351.34 357.43,351.34 356.58,351.20 356.58,351.20 355.70,351.15 355.70,351.15 354.78,351.17 354.78,351.17 353.84,351.28 353.84,351.28 352.88,351.48 352.88,351.48 351.93,351.78 351.93,351.78 350.97,352.17 350.97,352.17 350.03,352.65 350.03,352.65 349.12,353.23 349.12,353.23 348.24,353.91 347.76,354.36 347.76,354.36 347.01,355.12 346.58,355.64 346.58,355.64 345.92,356.52 345.56,357.13 345.26,357.69 344.98,358.26 344.73,358.84 344.49,359.43 344.28,360.04 344.10,360.67 343.94,361.31 343.81,361.97 343.71,362.64 343.63,363.31 343.59,364.00 343.57,364.70 343.59,365.41 343.64,366.12 343.72,366.84 343.83,367.56 343.97,368.28 344.15,369.00 344.36,369.73 344.61,370.45 344.89,371.16 345.20,371.88 345.54,372.58 345.92,373.28 346.34,373.96 346.78,374.64 347.26,375.30 347.78,375.95 348.32,376.58 348.90,377.20 349.51,377.79 350.14,378.37 350.81,378.92 351.51,379.45 352.24,379.96 352.99,380.43 353.77,380.89 354.57,381.31 355.40,381.70 356.25,382.06 357.13,382.39 358.02,382.68 358.94,382.94 359.87,383.17 360.81,383.35 361.78,383.50 362.75,383.61 363.74,383.68 364.73,383.71 365.74,383.70 366.75,383.65 367.76,383.56 368.78,383.42 369.80,383.24 370.82,383.02 371.83,382.75 372.84,382.44 373.85,382.09 374.84,381.69 375.83,381.25 376.80,380.77 377.76,380.24 378.70,379.68 379.62,379.06 380.52,378.41 381.40,377.72 382.26,376.98 383.09,376.21 383.89,375.40 384.67,374.54 385.41,373.66 386.12,372.73 386.79,371.78 387.43,370.79 388.03,369.76 388.59,368.71 389.11,367.63 389.59,366.52 390.02,365.38 390.41,364.22 390.75,363.04 391.04,361.84 391.29,360.62 391.48,359.38 391.62,358.13 391.72,356.86 391.76,355.58 391.74,354.30 391.68,353.01 391.56,351.71 391.38,350.42 391.15,349.12 390.86,347.82 390.52,346.53 390.13,345.25 389.67,343.98 389.17,342.72 388.61,341.47 387.99,340.24 387.32,339.03 386.59,337.84 385.82,336.67 384.99,335.53 384.11,334.42 383.18,333.33 382.20,332.28 381.17,331.26 380.09,330.28 378.97,329.34 377.81,328.44 376.60,327.59 375.35,326.77 374.07,326.01 372.74,325.29 371.38,324.62 369.99,324.00 368.57,323.44 367.11,322.93 365.63,322.48 364.13,322.09 362.60,321.75 361.05,321.48 359.49,321.27 357.91,321.11 356.31,321.02 354.71,321.00 353.10,321.04 351.48,321.14 349.86,321.31 348.25,321.55 346.63,321.85 345.03,322.22 343.43,322.65 341.84,323.15 340.27,323.72 338.72,324.35 337.18,325.04 335.67,325.80 334.19,326.63 332.73,327.51 331.31,328.46 329.92,329.47 328.56,330.54 327.25,331.67 325.97,332.86 324.75,334.10 323.56,335.39 322.43,336.74 321.35,338.14 320.32,339.58 319.35,341.07 318.44,342.61 317.59,344.19 316.80,345.81 316.07,347.47 315.41,349.16 314.82,350.89 314.30,352.64 313.85,354.42 313.47,356.23 313.07,358.61 312.95,360.06 312.79,361.82 312.67,364.22 312.73,365.70 312.80,368.01 312.97,369.50 313.23,371.81 313.52,373.30 313.97,375.59 314.38,377.07 315.03,379.34 315.56,380.80 316.41,383.01 317.06,384.44 318.09,386.60 318.86,387.99 320.08,390.07 320.95,391.41 322.36,393.39 323.34,394.67 324.92,396.55 326.01,397.77 327.76,399.52 328.94,400.66 330.85,402.28 332.13,403.33 334.18,404.80 335.54,405.75 337.73,407.07 339.17,407.92 341.48,409.06 342.99,409.80 345.41,410.77 346.98,411.38 349.50,412.16 351.11,412.65 353.71,413.23 355.36,413.60 358.03,413.97 359.71,414.21 362.42,414.37 364.12,414.47 366.87,414.42 368.57,414.38 371.33,414.11 373.03,413.93 375.78,413.44 377.46,413.12 380.19,412.42 381.85,411.95 384.53,411.03 386.15,410.43 388.78,409.30 390.35,408.56 392.89,407.21 394.40,406.34 396.85,404.79 398.28,403.79 400.62,402.05 401.97,400.91 404.17,398.99 405.43,397.73 407.49,395.63 408.65,394.26 410.54,391.99 411.59,390.52 413.30,388.10 414.23,386.53 415.75,383.97 416.55,382.32 417.87,379.63 418.53,377.90 419.63,375.11 420.16,373.31 421.04,370.43 421.54,368.01 422.00,365.58 422.36,363.13 422.63,360.66 422.79,358.17 422.86,355.68 422.82,353.17 422.68,350.66 422.44,348.14 422.10,345.64 421.65,343.13 421.10,340.64 420.45,338.17 419.69,335.72 418.83,333.29 417.88,330.89 416.82,328.52 415.66,326.19 414.41,323.90 413.06,321.65 411.62,319.45 410.08,317.31 408.45,315.22 406.74,313.19 404.94,311.22 403.05,309.33 401.09,307.50 399.04,305.75 396.92,304.07 394.73,302.48 392.47,300.97 390.14,299.54 387.75,298.21 385.30,296.97 382.80,295.82 380.24,294.78 377.64,293.83 374.99,292.98 372.30,292.24 369.58,291.60 366.83,291.07 364.05,290.65 361.24,290.33 358.42,290.13 355.59,290.04 352.75,290.07 349.90,290.21 347.05,290.46 344.21,290.82 341.38,291.30 338.56,291.89 335.76,292.60 332.99,293.42 330.24,294.35 327.52,295.40 324.85,296.55 322.21,297.81 319.63,299.18 317.09,300.66 314.61,302.24 312.19,303.92 309.83,305.70 307.55,307.58 305.33,309.56 303.19,311.62 301.13,313.78 299.16,316.02 297.27,318.35 295.48,320.75 293.78,323.23 292.18,325.79 290.68,328.41 289.28,331.10 287.99,333.84 286.82,336.65 285.75,339.51 284.80,342.41 283.96,345.36 283.24,348.35 282.65,351.37 282.17,354.42 281.82,357.49 281.60,360.59 281.50,363.70 281.52,366.82 281.68,369.95 281.96,373.07 282.37,376.19 282.90,379.30 283.57,382.39 284.36,385.47 285.27,388.51 286.31,391.53 287.48,394.51 288.77,397.45 290.18,400.34 291.71,403.19 293.36,405.97 295.13,408.70 297.00,411.36 298.99,413.95 301.09,416.47 303.29,418.91 305.60,421.26 308.00,423.53 310.50,425.71 313.09,427.79 315.77,429.77 318.54,431.64 321.38,433.42 324.30,435.08 327.29,436.62 330.35,438.06 333.47,439.37 336.65,440.56 339.88,441.62 343.16,442.56 346.48,443.37 349.84,444.05 353.23,444.60 356.65,445.01 360.09,445.29 363.55,445.43 367.01,445.43 370.48,445.30 373.95,445.03 377.41,444.62 380.86,444.07 384.29,443.38 387.70,442.55 391.08,441.59 394.42,440.49 397.73,439.26 400.98,437.89 404.19,436.39 407.34,434.77 410.43,433.01 413.44,431.13 416.39,429.12 419.26,426.99 422.05,424.75 424.74,422.39 427.35,419.92 429.86,417.34 432.26,414.66 434.56,411.88 436.76,409.00 438.83,406.03 440.79,402.98 442.63,399.84 444.34,396.62 445.92,393.33 447.37,389.97 448.69,386.55 449.87,383.07 450.91,379.54 451.80,375.96 452.56,372.34 453.16,368.69 453.62,365.00 453.94,361.30 454.10,357.57 454.11,353.83 453.96,350.09 453.67,346.35 453.22,342.61 452.63,338.89 451.88,335.18 450.98,331.50 449.92,327.85 448.72,324.23 447.37,320.66 445.88,317.14 444.24,313.67 442.46,310.26 440.54,306.92 438.48,303.65 436.28,300.46 433.96,297.35 431.50,294.33 428.92,291.40 426.22,288.57 423.40,285.84 420.46,283.23 417.42,280.72 414.28,278.34 411.03,276.07 407.68,273.93 404.25,271.93 400.73,270.05 397.14,268.31 393.46,266.72 389.72,265.27 385.92,263.96 382.06,262.81 378.15,261.80 374.19,260.95 370.20,260.26 366.17,259.72 362.12,259.35 358.04,259.13 353.96,259.08 349.87,259.19 345.78,259.46 341.69,259.89 337.62,260.49 333.57,261.25 329.55,262.17 325.55,263.25 321.60,264.50 317.70,265.90 313.85,267.46 310.06,269.17 306.33,271.03 302.68,273.05 299.10,275.21 295.61,277.52 292.21,279.97 288.90,282.56 285.70,285.28 282.61,288.13 279.62,291.11 276.76,294.21 274.02,297.43 271.40,300.76 268.92,304.20 266.58,307.74 264.38,311.38 262.32,315.11 260.42,318.92 258.66,322.82 257.07,326.79 255.63,330.83 254.36,334.93 253.25,339.09 252.31,343.29 251.54,347.54 250.94,351.82 250.52,356.13 250.27,360.47 250.19,364.82 250.29,369.17 250.57,373.53 251.03,377.88 251.66,382.22 252.47,386.54 253.46,390.83 254.62,395.09 255.96,399.31 257.46,403.48 259.14,407.59 260.99,411.64 263.00,415.62 265.18,419.53 267.51,423.36 270.00,427.10 272.65,430.74 275.45,434.29 278.39,437.72 281.48,441.04 284.70,444.25 288.05,447.33 291.53,450.28 295.14,453.10 298.86,455.77 302.69,458.31 306.63,460.69 310.67,462.92 314.80,464.99 319.02,466.90 323.31,468.64 327.69,470.22 332.12,471.62 336.62,472.85 341.17,473.90 345.77,474.77 350.41,475.47 355.07,475.97 359.77,476.30 364.47,476.43 369.19,476.38 373.91,476.14 378.62,475.72 383.31,475.11 387.99,474.30 392.63,473.32 397.24,472.15 401.80,470.79 406.31,469.25 410.76,467.53 415.15,465.63 419.46,463.55 423.69,461.30 427.83,458.88 431.88,456.30 435.82,453.55 439.65,450.64 443.37,447.57 446.97,444.35 450.44,440.99 453.77,437.49 456.97,433.85 460.02,430.07 462.92,426.18 465.66,422.16 468.24,418.03 470.66,413.80 472.90,409.46 474.98,405.03 476.87,400.52 478.58,395.92 480.11,391.25 481.45,386.52 482.60,381.73 483.55,376.88 484.31,372.00 484.87,367.08 485.24,362.13 485.40,357.17 485.36,352.19 485.12,347.21 484.68,342.23 484.04,337.27 483.20,332.33 482.15,327.41 480.91,322.54 479.46,317.71 477.83,312.93 475.99,308.21 473.97,303.56 471.75,298.99 469.35,294.50 466.77,290.11 464.01,285.81 461.07,281.62 457.96,277.54 454.68,273.58 451.24,269.74 447.64,266.05 443.90,262.49 440.00,259.07 435.96,255.81 431.79,252.71 427.50,249.77 423.08,246.99 418.54,244.39 413.90,241.97 409.16,239.73 404.32,237.68 399.40,235.82 394.40,234.15 389.32,232.68 384.19,231.41 379.00,230.34 373.77,229.47 368.49,228.82 363.19,228.37 357.87,228.13 352.53,228.11 347.19,228.29 341.85,228.69 336.53,229.30" fill="none" stroke="#dc2626" stroke-width="2" stroke-linecap="round" stroke-linejoin="round" stroke-opacity="0.72"/>
  <circle cx="360.00" cy="360.00" r="4" fill="#111827"/>
  <circle cx="336.58" cy="228.67" r="5" fill="#7c3aed"/>

  <g font-family="Arial, sans-serif" font-size="13" fill="#1f2933">
    <rect x="34" y="588" width="330" height="96" rx="6" fill="#ffffff" stroke="#d2d6dc"/>
    <circle cx="54" cy="613" r="5" fill="#229954"/><text x="70" y="618">True hole center and alignment tolerance</text>
    <circle cx="54" cy="638" r="5" fill="#d97706"/><text x="70" y="643">Random coarse vision estimate</text>
    <line x1="49" y1="664" x2="64" y2="664" stroke="#2563eb" stroke-width="3"/><text x="70" y="669">Commanded Archimedes spiral</text>
  </g>
  <text x="460" y="682" font-family="Consolas, monospace" font-size="12" fill="#4b5563">offset=(+0.0064, -0.0168) m</text>
</svg>
