<svg xmlns="http://www.w3.org/2000/svg" width="720" height="720" viewBox="0 0 720 720">
  <title>Archimedes spiral rubbing trajectory on the hole surface</title>
  <rect width="100%" height="100%" fill="#f7f7f4"/>
  <text x="34" y="38" font-family="Arial, sans-serif" font-size="22" fill="#1f2933">Archimedes Spiral Rubbing Trace</text>
  <text x="34" y="62" font-family="Arial, sans-serif" font-size="13" fill="#4b5563">Top view on the contact surface, coordinates relative to the true hole center.</text>

  <line x1="70" y1="405.47" x2="650" y2="405.47" stroke="#d2d6dc" stroke-width="1"/>
  <line x1="356.22" y1="70" x2="356.22" y2="650" stroke="#d2d6dc" stroke-width="1"/>

  <circle cx="360.00" cy="360.00" r="233.87" fill="none" stroke="#9aa6b2" stroke-width="2" stroke-dasharray="8 7"/>
  <circle cx="356.22" cy="405.47" r="31.18" fill="#27ae60" fill-opacity="0.16" stroke="#229954" stroke-width="2"/>
  <circle cx="356.22" cy="405.47" r="5" fill="#229954"/>
  <circle cx="360.00" cy="360.00" r="5" fill="#d97706"/>
  <polyline points="360.00,360.00 360.15,359.99 360.30,359.98 360.44,359.95 360.59,359.91 360.73,359.85 360.87,359.79 361.00,359.71 361.13,359.63 361.25,359.53 361.37,359.42 361.48,359.30 361.58,359.17 361.68,359.04 361.77,358.89 361.84,358.74 361.91,358.58 361.97,358.41 362.01,358.23 362.05,358.05 362.07,357.86 362.09,357.67 362.09,357.48 362.07,357.28 362.05,357.07 362.01,356.87 361.96,356.66 361.89,356.45 361.82,356.25 361.72,356.04 361.62,355.84 361.50,355.63 361.37,355.44 361.22,355.24 361.06,355.05 360.89,354.86 360.70,354.69 360.50,354.51 360.29,354.35 360.06,354.19 359.83,354.05 359.58,353.91 359.32,353.78 359.05,353.67 358.77,353.57 358.48,353.48 358.18,353.40 357.87,353.33 357.55,353.28 357.23,353.25 356.90,353.23 356.57,353.23 356.23,353.24 355.88,353.27 355.53,353.32 355.18,353.38 354.83,353.46 354.47,353.56 354.12,353.68 353.76,353.81 353.41,353.97 353.06,354.14 352.72,354.33 352.37,354.54 352.04,354.77 351.71,355.01 351.38,355.28 351.07,355.56 350.76,355.86 350.47,356.17 350.18,356.51 349.91,356.86 349.64,357.23 349.40,357.61 349.16,358.01 348.95,358.42 348.74,358.85 348.56,359.29 348.39,359.75 348.24,360.22 348.11,360.70 348.00,361.18 347.91,361.68 347.84,362.19 347.79,362.71 347.76,363.23 347.76,363.76 347.78,364.30 347.82,364.84 347.89,365.38 347.98,365.93 348.10,366.48 348.24,367.02 348.41,367.57 348.60,368.11 348.81,368.65 349.05,369.19 349.32,369.72 349.61,370.24 349.93,370.76 350.27,371.27 350.63,371.76 351.02,372.25 351.44,372.72 351.88,373.18 352.34,373.63 352.82,374.05 353.32,374.46 353.85,374.86" fill="none" stroke="#2563eb" stroke-width="3" stroke-linecap="round" stroke-linejoin="round"/>
  <polyline points="361.71,359.06 360.42,359.86 360.42,359.86 360.42,359.86 360.42,359.86 360.42,359.86 360.42,359.86 360.42,359.86 360.42,359.86 361.09,359.55 361.09,359.55 361.09,359.55 361.09,359.55 361.09,359.55 361.67,359.02 361.67,359.02 361.67,359.02 361.67,359.02 362.01,358.43 362.01,358.43 362.01,358.43 362.01,358.43 362.15,357.75 362.15,357.75 362.15,357.75 362.12,357.14 362.12,357.14 362.12,357.14 361.96,356.54 361.96,356.54 361.76,356.08 361.76,356.08 361.76,356.08 361.42,355.54 361.42,355.54 361.07,355.11 361.07,355.11 360.68,354.74 360.68,354.74 360.25,354.41 360.25,354.41 359.77,354.12 359.77,354.12 359.25,353.87 359.25,353.87 358.69,353.66 358.69,353.66 358.08,353.51 358.08,353.51 357.45,353.40 357.45,353.40 356.78,353.36 356.78,353.36 356.09,353.38 356.09,353.38 355.39,353.46 355.39,353.46 354.67,353.62 354.67,353.62 353.95,353.84 353.95,353.84 353.24,354.13 353.24,354.13 352.53,354.50 352.53,354.50 351.85,354.94 351.85,354.94 351.19,355.45 351.19,355.45 350.56,356.03 350.56,356.03 349.98,356.68 349.98,356.68 349.44,357.39 349.44,357.39 348.97,358.17 348.97,358.17 348.55,359.00 348.55,359.00 348.20,359.89 348.06,360.47 348.06,360.47 347.83,361.34 347.76,361.94 347.76,361.94 347.65,362.85 347.65,363.48 347.68,364.05 347.72,364.59 347.78,365.13 347.87,365.68 347.98,366.22 348.11,366.76 348.27,367.30 348.45,367.84 348.66,368.38 348.89,368.91 349.15,369.44 349.44,369.97 349.74,370.48 350.08,370.99 350.44,371.48 350.82,371.97 351.23,372.44 351.66,372.90 352.12,373.35 352.60,373.78 353.10,374.20 353.62,374.59" fill="none" stroke="#dc2626" stroke-width="2" stroke-linecap="round" stroke-linejoin="round" stroke-opacity="0.72"/>
  <circle cx="360.00" cy="360.00" r="4" fill="#111827"/>
  <circle cx="353.85" cy="374.86" r="5" fill="#7c3aed"/>

  <g font-family="Arial, sans-serif" font-size="13" fill="#1f2933">
    <rect x="34" y="588" width="330" height="96" rx="6" fill="#ffffff" stroke="#d2d6dc"/>
    <circle cx="54" cy="613" r="5" fill="#229954"/><text x="70" y="618">True hole center and alignment tolerance</text>
    <circle cx="54" cy="638" r="5" fill="#d97706"/><text x="70" y="643">Random coarse vision estimate</text>
    <line x1="49" y1="664" x2="64" y2="664" stroke="#2563eb" stroke-width="3"/><text x="70" y="669">Commanded Archimedes spiral</text>
  </g>
  <text x="460" y="682" font-family="Consolas, monospace" font-size="12" fill="#4b5563">offset=(+0.0005, +0.0058) m</text>
</svg>
